<?xml version="1.0" encoding="UTF-8" standalone="no"?>
<!-- Created with Inkscape (http://www.inkscape.org/) -->

<svg
   xmlns:dc="http://purl.org/dc/elements/1.1/"
   xmlns:cc="http://creativecommons.org/ns#"
   xmlns:rdf="http://www.w3.org/1999/02/22-rdf-syntax-ns#"
   xmlns:svg="http://www.w3.org/2000/svg"
   xmlns="http://www.w3.org/2000/svg"
   xmlns:xlink="http://www.w3.org/1999/xlink"
   xmlns:sodipodi="http://sodipodi.sourceforge.net/DTD/sodipodi-0.dtd"
   xmlns:inkscape="http://www.inkscape.org/namespaces/inkscape"
   width="32"
   height="32"
   id="svg2"
   version="1.1"
   inkscape:version="0.48.4 r9939"
   sodipodi:docname="gold_install_icon.svg">
  <defs
     id="defs4">
    <linearGradient
       id="linearGradient4197">
      <stop
         id="stop4199"
         offset="0"
         style="stop-color:#473800;stop-opacity:1;" />
      <stop
         id="stop4201"
         offset="1"
         style="stop-color:#a27e00;stop-opacity:0" />
    </linearGradient>
    <linearGradient
       id="linearGradient4185">
      <stop
         id="stop4187"
         offset="0"
         style="stop-color:#dad6cd;stop-opacity:1" />
      <stop
         id="stop4189"
         offset="1"
         style="stop-color:#d4cfbf;stop-opacity:1" />
    </linearGradient>
    <linearGradient
       id="linearGradient4177"
       inkscape:collect="always">
      <stop
         id="stop4179"
         offset="0"
         style="stop-color:#b6ad4c;stop-opacity:1" />
      <stop
         id="stop4181"
         offset="1"
         style="stop-color:#8c8a81;stop-opacity:0" />
    </linearGradient>
    <linearGradient
       inkscape:collect="always"
       id="linearGradient4159">
      <stop
         style="stop-color:#c7c6c1;stop-opacity:1"
         offset="0"
         id="stop4161" />
      <stop
         style="stop-color:#cab143;stop-opacity:1"
         offset="1"
         id="stop4163" />
    </linearGradient>
    <linearGradient
       id="linearGradient4139">
      <stop
         id="stop4141"
         offset="0"
         style="stop-color:#000000;stop-opacity:1" />
      <stop
         id="stop4143"
         offset="1"
         style="stop-color:#654e00;stop-opacity:1" />
    </linearGradient>
    <linearGradient
       id="linearGradient4131">
      <stop
         id="stop4133"
         offset="0"
         style="stop-color:#000000;stop-opacity:1" />
      <stop
         id="stop4135"
         offset="1"
         style="stop-color:#a27e00;stop-opacity:1;" />
    </linearGradient>
    <linearGradient
       id="linearGradient4121">
      <stop
         style="stop-color:#a27e00;stop-opacity:1"
         offset="0"
         id="stop4123" />
      <stop
         style="stop-color:#2c2200;stop-opacity:1"
         offset="1"
         id="stop4125" />
    </linearGradient>
    <linearGradient
       id="linearGradient4093">
      <stop
         style="stop-color:#473800;stop-opacity:1;"
         offset="0"
         id="stop4095" />
      <stop
         style="stop-color:#a27e00;stop-opacity:1;"
         offset="1"
         id="stop4097" />
    </linearGradient>
    <linearGradient
       id="linearGradient4083">
      <stop
         style="stop-color:#473800;stop-opacity:1;"
         offset="0"
         id="stop4085" />
      <stop
         style="stop-color:#a27e00;stop-opacity:1;"
         offset="1"
         id="stop4087" />
    </linearGradient>
    <inkscape:perspective
       sodipodi:type="inkscape:persp3d"
       inkscape:vp_x="10.915844 : 14.624776 : 1"
       inkscape:vp_y="0 : 1000 : 0"
       inkscape:vp_z="10.941876 : 14.624776 : 1"
       inkscape:persp3d-origin="5.6858169 : 8.1740727 : 1"
       id="perspective3087" />
    <linearGradient
       inkscape:collect="always"
       id="linearGradient3992">
      <stop
         style="stop-color:#f5c700;stop-opacity:1;"
         offset="0"
         id="stop3994" />
      <stop
         style="stop-color:#000000;stop-opacity:1"
         offset="1"
         id="stop3996" />
    </linearGradient>
    <linearGradient
       inkscape:collect="always"
       id="linearGradient3984">
      <stop
         style="stop-color:#f5c700;stop-opacity:1;"
         offset="0"
         id="stop3986" />
      <stop
         style="stop-color:#000000;stop-opacity:1"
         offset="1"
         id="stop3988" />
    </linearGradient>
    <linearGradient
       inkscape:collect="always"
       id="linearGradient3971">
      <stop
         style="stop-color:#f5c700;stop-opacity:1;"
         offset="0"
         id="stop3973" />
      <stop
         style="stop-color:#000000;stop-opacity:1"
         offset="1"
         id="stop3975" />
    </linearGradient>
    <linearGradient
       inkscape:collect="always"
       id="linearGradient3963">
      <stop
         style="stop-color:#000000;stop-opacity:1"
         offset="0"
         id="stop3965" />
      <stop
         style="stop-color:#7f6400;stop-opacity:0;"
         offset="1"
         id="stop3967" />
    </linearGradient>
    <linearGradient
       inkscape:collect="always"
       id="linearGradient3945">
      <stop
         style="stop-color:#f5c700;stop-opacity:1;"
         offset="0"
         id="stop3947" />
      <stop
         style="stop-color:#000000;stop-opacity:1"
         offset="1"
         id="stop3949" />
    </linearGradient>
    <linearGradient
       inkscape:collect="always"
       id="linearGradient3929">
      <stop
         style="stop-color:#1a1500;stop-opacity:1"
         offset="0"
         id="stop3931" />
      <stop
         style="stop-color:#d7ae00;stop-opacity:1"
         offset="1"
         id="stop3933" />
    </linearGradient>
    <linearGradient
       id="linearGradient3900"
       inkscape:collect="always">
      <stop
         id="stop3902"
         offset="0"
         style="stop-color:#ffd332;stop-opacity:1" />
      <stop
         id="stop3904"
         offset="1"
         style="stop-color:#000000;stop-opacity:1" />
    </linearGradient>
    <linearGradient
       inkscape:collect="always"
       id="linearGradient3875">
      <stop
         style="stop-color:#ffd438;stop-opacity:1"
         offset="0"
         id="stop3877" />
      <stop
         style="stop-color:#000000;stop-opacity:1"
         offset="1"
         id="stop3879" />
    </linearGradient>
    <filter
       inkscape:collect="always"
       id="filter4138"
       x="-0.1131677"
       width="1.2263354"
       y="-0.096803329"
       height="1.1936067">
      <feGaussianBlur
         inkscape:collect="always"
         stdDeviation="1.1726717"
         id="feGaussianBlur4140" />
    </filter>
    <linearGradient
       inkscape:collect="always"
       xlink:href="#linearGradient3992"
       id="linearGradient3187"
       gradientUnits="userSpaceOnUse"
       x1="10.5"
       y1="22.125"
       x2="7.1875"
       y2="29.4375" />
    <linearGradient
       inkscape:collect="always"
       xlink:href="#linearGradient3984"
       id="linearGradient3189"
       gradientUnits="userSpaceOnUse"
       x1="5.9375"
       y1="13.84375"
       x2="6.0625"
       y2="19.5625" />
    <linearGradient
       inkscape:collect="always"
       xlink:href="#linearGradient3945"
       id="linearGradient3191"
       gradientUnits="userSpaceOnUse"
       x1="21.963614"
       y1="1036.9344"
       x2="27.312754"
       y2="1039.2969" />
    <linearGradient
       inkscape:collect="always"
       xlink:href="#linearGradient3929"
       id="linearGradient3193"
       gradientUnits="userSpaceOnUse"
       x1="3.3806913"
       y1="1040.2177"
       x2="24.976213"
       y2="1037.3557" />
    <linearGradient
       inkscape:collect="always"
       xlink:href="#linearGradient3971"
       id="linearGradient3195"
       gradientUnits="userSpaceOnUse"
       x1="-616.87164"
       y1="820.93103"
       x2="-625.89124"
       y2="820.48627" />
    <linearGradient
       inkscape:collect="always"
       xlink:href="#linearGradient3929"
       id="linearGradient3197"
       gradientUnits="userSpaceOnUse"
       gradientTransform="matrix(1,0,0,-1,3.746111e-8,2073.851)"
       x1="3.3806913"
       y1="1040.2177"
       x2="24.976213"
       y2="1037.3557" />
    <radialGradient
       inkscape:collect="always"
       xlink:href="#linearGradient3900"
       id="radialGradient3199"
       gradientUnits="userSpaceOnUse"
       gradientTransform="matrix(2.3589521,0,0,2.3589521,-24.265377,-34.101604)"
       cx="17.855946"
       cy="25.094042"
       fx="17.855946"
       fy="25.094042"
       r="0.99545348" />
    <radialGradient
       inkscape:collect="always"
       xlink:href="#linearGradient3875"
       id="radialGradient3201"
       gradientUnits="userSpaceOnUse"
       gradientTransform="matrix(2.4704161,0,0,2.4704161,-26.255671,-36.898686)"
       cx="17.855946"
       cy="25.094042"
       fx="17.855946"
       fy="25.094042"
       r="0.99545348" />
    <linearGradient
       inkscape:collect="always"
       xlink:href="#linearGradient3963"
       id="linearGradient3203"
       gradientUnits="userSpaceOnUse"
       x1="6.533155"
       y1="11.615763"
       x2="6.4043641"
       y2="17.009403" />
    <linearGradient
       inkscape:collect="always"
       xlink:href="#linearGradient3992"
       id="linearGradient3205"
       gradientUnits="userSpaceOnUse"
       x1="10.5"
       y1="22.125"
       x2="7.1875"
       y2="29.4375" />
    <linearGradient
       inkscape:collect="always"
       xlink:href="#linearGradient3984"
       id="linearGradient3207"
       gradientUnits="userSpaceOnUse"
       x1="5.9375"
       y1="13.84375"
       x2="6.0625"
       y2="19.5625" />
    <linearGradient
       inkscape:collect="always"
       xlink:href="#linearGradient3945"
       id="linearGradient3209"
       gradientUnits="userSpaceOnUse"
       x1="21.963614"
       y1="1036.9344"
       x2="27.312754"
       y2="1039.2969" />
    <linearGradient
       inkscape:collect="always"
       xlink:href="#linearGradient3929"
       id="linearGradient3211"
       gradientUnits="userSpaceOnUse"
       x1="3.3806913"
       y1="1040.2177"
       x2="24.976213"
       y2="1037.3557" />
    <linearGradient
       inkscape:collect="always"
       xlink:href="#linearGradient3971"
       id="linearGradient3213"
       gradientUnits="userSpaceOnUse"
       x1="-616.87164"
       y1="820.93103"
       x2="-625.89124"
       y2="820.48627" />
    <linearGradient
       inkscape:collect="always"
       xlink:href="#linearGradient3929"
       id="linearGradient3215"
       gradientUnits="userSpaceOnUse"
       gradientTransform="matrix(1,0,0,-1,3.7461111e-8,2073.851)"
       x1="3.3806913"
       y1="1040.2177"
       x2="24.976213"
       y2="1037.3557" />
    <radialGradient
       inkscape:collect="always"
       xlink:href="#linearGradient3900"
       id="radialGradient3217"
       gradientUnits="userSpaceOnUse"
       gradientTransform="matrix(2.3589521,0,0,2.3589521,-24.265377,-34.101604)"
       cx="17.855946"
       cy="25.094042"
       fx="17.855946"
       fy="25.094042"
       r="0.99545348" />
    <radialGradient
       inkscape:collect="always"
       xlink:href="#linearGradient3875"
       id="radialGradient3219"
       gradientUnits="userSpaceOnUse"
       gradientTransform="matrix(2.4704161,0,0,2.4704161,-26.255671,-36.898686)"
       cx="17.855946"
       cy="25.094042"
       fx="17.855946"
       fy="25.094042"
       r="0.99545348" />
    <linearGradient
       inkscape:collect="always"
       xlink:href="#linearGradient3963"
       id="linearGradient3221"
       gradientUnits="userSpaceOnUse"
       x1="6.533155"
       y1="11.615763"
       x2="6.4043641"
       y2="17.009403" />
    <filter
       inkscape:collect="always"
       id="filter4077"
       x="-0.073043556"
       width="1.1460871"
       y="-0.33599836"
       height="1.6719967">
      <feGaussianBlur
         inkscape:collect="always"
         stdDeviation="0.82174"
         id="feGaussianBlur4079" />
    </filter>
    <radialGradient
       inkscape:collect="always"
       xlink:href="#linearGradient4083"
       id="radialGradient4089"
       cx="13.58595"
       cy="31.366898"
       fx="13.58595"
       fy="31.366898"
       r="8.499999"
       gradientTransform="matrix(1.8794556,0.02195474,-0.01696316,1.4521476,-11.416158,-16.480742)"
       gradientUnits="userSpaceOnUse" />
    <radialGradient
       inkscape:collect="always"
       xlink:href="#linearGradient4093"
       id="radialGradient4099"
       cx="25.68697"
       cy="21.968441"
       fx="25.68697"
       fy="21.968441"
       r="3.0000015"
       gradientTransform="matrix(2.0348127,0.00952321,-0.0269287,5.7538238,-26.102026,-100.0394)"
       gradientUnits="userSpaceOnUse" />
    <filter
       inkscape:collect="always"
       id="filter4111"
       x="-0.165"
       width="1.33"
       y="-0.094285714"
       height="1.1885714">
      <feGaussianBlur
         inkscape:collect="always"
         stdDeviation="0.55"
         id="feGaussianBlur4113" />
    </filter>
    <clipPath
       clipPathUnits="userSpaceOnUse"
       id="clipPath4117">
      <path
         style="fill:#000000;fill-opacity:0.3010753;stroke:none"
         d="m 22.070755,1036.7367 6.015197,-5.0076 0,20.5723 -7.117919,0 z"
         id="path4119"
         inkscape:connector-curvature="0" />
    </clipPath>
    <linearGradient
       inkscape:collect="always"
       xlink:href="#linearGradient4121"
       id="linearGradient4127"
       x1="25.341808"
       y1="1034.0159"
       x2="32.585953"
       y2="1045.7916"
       gradientUnits="userSpaceOnUse" />
    <linearGradient
       inkscape:collect="always"
       xlink:href="#linearGradient4131"
       id="linearGradient4129"
       x1="17.456697"
       y1="1039.6785"
       x2="17.629051"
       y2="1030.9778"
       gradientUnits="userSpaceOnUse" />
    <linearGradient
       inkscape:collect="always"
       xlink:href="#linearGradient4139"
       id="linearGradient4137"
       x1="6.6875"
       y1="1033.5497"
       x2="5.9375"
       y2="1043.8622"
       gradientUnits="userSpaceOnUse" />
    <linearGradient
       inkscape:collect="always"
       xlink:href="#linearGradient4159"
       id="linearGradient4165"
       x1="13.1875"
       y1="23.125"
       x2="13.104272"
       y2="28.124321"
       gradientUnits="userSpaceOnUse" />
    <linearGradient
       inkscape:collect="always"
       xlink:href="#linearGradient4177"
       id="linearGradient4169"
       gradientUnits="userSpaceOnUse"
       x1="15.049875"
       y1="19.497498"
       x2="10.248931"
       y2="27.170782" />
    <linearGradient
       inkscape:collect="always"
       xlink:href="#linearGradient4185"
       id="linearGradient4183"
       x1="13.585951"
       y1="22.866899"
       x2="13.260029"
       y2="24.748411"
       gradientUnits="userSpaceOnUse" />
    <radialGradient
       inkscape:collect="always"
       xlink:href="#linearGradient4197"
       id="radialGradient4203"
       gradientUnits="userSpaceOnUse"
       gradientTransform="matrix(1.8794556,0.02195474,-0.01696316,1.4521476,-11.416158,-16.480742)"
       cx="13.58595"
       cy="31.366898"
       fx="13.58595"
       fy="31.366898"
       r="8.499999" />
  </defs>
  <sodipodi:namedview
     id="base"
     pagecolor="#ffffff"
     bordercolor="#666666"
     borderopacity="1.0"
     inkscape:pageopacity="0.0"
     inkscape:pageshadow="2"
     inkscape:zoom="8"
     inkscape:cx="21.189241"
     inkscape:cy="21.743573"
     inkscape:document-units="px"
     inkscape:current-layer="layer1"
     showgrid="false"
     inkscape:window-width="1360"
     inkscape:window-height="722"
     inkscape:window-x="-8"
     inkscape:window-y="-8"
     inkscape:window-maximized="1"
     inkscape:snap-bbox="true"
     inkscape:bbox-nodes="false"
     inkscape:bbox-paths="false"
     inkscape:object-paths="true"
     inkscape:object-nodes="false"
     inkscape:snap-nodes="true"
     inkscape:snap-global="true"
     inkscape:snap-bbox-midpoints="true"
     inkscape:snap-object-midpoints="true">
    <inkscape:grid
       type="xygrid"
       id="grid3223" />
  </sodipodi:namedview>
  <metadata
     id="metadata7">
    <rdf:RDF>
      <cc:Work
         rdf:about="">
        <dc:format>image/svg+xml</dc:format>
        <dc:type
           rdf:resource="http://purl.org/dc/dcmitype/StillImage" />
        <dc:title />
      </cc:Work>
    </rdf:RDF>
  </metadata>
  <g
     inkscape:label="Layer 1"
     inkscape:groupmode="layer"
     id="layer1"
     transform="translate(0,-1020.3622)">
    <path
       inkscape:connector-curvature="0"
       id="path4019"
       d="m 3.0859515,1045.7291 2,-9 6.0000005,-5 c 0,0 -0.737277,6.2481 -2.0000005,8 -1.262723,1.7519 -6,6 -6,6 z"
       style="fill:url(#linearGradient4137);fill-opacity:1;stroke:none"
       sodipodi:nodetypes="ccccc" />
    <path
       sodipodi:nodetypes="ccccc"
       inkscape:connector-curvature="0"
       id="path4071"
       d="m 2.5121149,1050.313 7.0434779,-5.8696 19.9565222,0 -7.043478,5.8696 z"
       style="fill:#000000;fill-opacity:1;stroke:none;filter:url(#filter4077)" />
    <g
       id="g3141"
       transform="translate(52.172576,-7.6496858)">
      <g
         id="g3143"
         style="fill:#000000;fill-opacity:1;stroke:none;filter:url(#filter4138)">
        <path
           style="fill:#000000;fill-opacity:1;stroke:none"
           d="m 8.3125,15.125 -4,0 0,5 7.40625,3.90625 -0.96875,-4.84375 -2.4375,-1.25 0,-2.8125 z"
           id="path3145"
           transform="translate(0,1020.3622)"
           inkscape:connector-curvature="0" />
        <path
           style="fill:#000000;fill-opacity:1;stroke:none"
           d="m 3.9375,15.125 0.125,0 0.25,0 4,0 1.75,0 1.4375,-3.1875 -7.4375,0 -0.125,0 c -0.8192133,0.066 -1.46875,0.75755 -1.46875,1.59375 0,0.8361 0.6495367,1.52795 1.46875,1.59375 z M 4.25,12.46875 c 0.5628073,0 1.03125,0.46845 1.03125,1.03125 0,0.5628 -0.4684427,1 -1.03125,1 -0.5628073,0 -1,-0.4372 -1,-1 0,-0.5628 0.4371927,-1.03125 1,-1.03125 z"
           id="path3147"
           transform="translate(0,1020.3622)"
           inkscape:connector-curvature="0" />
        <path
           inkscape:connector-curvature="0"
           style="fill:#000000;fill-opacity:1;stroke:none"
           d="m 21.222081,1029.5776 0,3.0313 0,0.2187 c 0.05354,0.5299 0.305986,1.0093 0.6875,1.3438 l -1.34375,3.4062 c 0,0 -0.678869,0.2275 -0.8125,0.5313 -0.133631,0.304 -2.5625,5.6875 -2.5625,5.6875 l 3,1.3125 c 0,0 2.236477,-5.6023 2.34375,-6.0313 0.107269,-0.4291 -0.21875,-0.9687 -0.21875,-0.9687 l 1.34375,-3.4688 c 0.855075,-0.1805 1.502987,-0.9233 1.59375,-1.8125 0.007,-0.069 0.03125,-0.148 0.03125,-0.2187 0,-0.1408 -0.0041,-0.2736 -0.03125,-0.4063 l 0,-2.625 -4.03125,0 z m 2.0625,1.7188 c 0.704607,0 1.25,0.5766 1.25,1.2812 0,0.7046 -0.545393,1.25 -1.25,1.25 -0.704607,0 -1.28125,-0.5454 -1.28125,-1.25 0,-0.7046 0.576643,-1.2812 1.28125,-1.2812 z"
           id="path3149" />
        <path
           style="fill:#000000;fill-opacity:1;stroke:none"
           d="m 16.099107,1038.143 -6.7434222,0 c 0.5910647,7.0352 6.2969722,12.6107 13.4868442,12.6107 1.164025,0 2.196222,-0.3756 3.276465,-0.6478 l 1.219149,-7.8483 c -1.221328,1.0535 -2.756012,1.7525 -4.495614,1.7525 -3.456847,0 -6.192613,-2.5667 -6.743422,-5.8671 z"
           id="path3151"
           inkscape:connector-curvature="0" />
        <rect
           style="fill:#000000;fill-opacity:1;stroke:none"
           id="rect3153"
           width="7.6608934"
           height="3.4132693"
           x="-618.29755"
           y="819.28662"
           transform="matrix(0.79194971,-0.61058633,0.61058633,0.79194971,0,0)" />
        <path
           inkscape:connector-curvature="0"
           id="path3155"
           d="m 16.099107,1035.708 -6.7434222,0 c 0.5910652,-7.0352 6.2969722,-12.6107 13.4868442,-12.6107 1.164025,0 2.196222,0.3756 3.276465,0.6478 l 1.219149,7.8483 c -1.221328,-1.0535 -2.756012,-1.7525 -4.495614,-1.7525 -3.456847,0 -6.192613,2.5667 -6.743422,5.8671 z"
           style="fill:#000000;fill-opacity:1;stroke:none" />
        <path
           sodipodi:type="arc"
           style="fill:#000000;fill-opacity:1;stroke:none"
           id="path3157"
           sodipodi:cx="17.855946"
           sodipodi:cy="25.094042"
           sodipodi:rx="0.99545348"
           sodipodi:ry="0.99545348"
           d="m 18.851399,25.094042 c 0,0.549774 -0.44568,0.995453 -0.995453,0.995453 -0.549774,0 -0.995454,-0.445679 -0.995454,-0.995453 0,-0.549774 0.44568,-0.995454 0.995454,-0.995454 0.549773,0 0.995453,0.44568 0.995453,0.995454 z"
           transform="matrix(1.5745242,0,0,1.5745242,-9.9475945,1006.505)" />
        <path
           transform="matrix(2.375,0,0,2.375,-28.844818,972.79257)"
           d="m 18.851399,25.094042 c 0,0.549774 -0.44568,0.995453 -0.995453,0.995453 -0.549774,0 -0.995454,-0.445679 -0.995454,-0.995453 0,-0.549774 0.44568,-0.995454 0.995454,-0.995454 0.549773,0 0.995453,0.44568 0.995453,0.995454 z"
           sodipodi:ry="0.99545348"
           sodipodi:rx="0.99545348"
           sodipodi:cy="25.094042"
           sodipodi:cx="17.855946"
           id="path3159"
           style="fill:#000000;fill-opacity:1;stroke:none"
           sodipodi:type="arc" />
        <path
           sodipodi:type="arc"
           style="fill:#000000;fill-opacity:1;stroke:none"
           id="path3161"
           sodipodi:cx="17.855946"
           sodipodi:cy="25.094042"
           sodipodi:rx="0.99545348"
           sodipodi:ry="0.99545348"
           d="m 18.851399,25.094042 c 0,0.549774 -0.44568,0.995453 -0.995453,0.995453 -0.549774,0 -0.995454,-0.445679 -0.995454,-0.995453 0,-0.549774 0.44568,-0.995454 0.995454,-0.995454 0.549773,0 0.995453,0.44568 0.995453,0.995454 z"
           transform="matrix(1.7120874,0,0,1.7120874,-17.007887,989.42773)" />
        <rect
           style="fill:#000000;fill-opacity:1;stroke:none"
           id="rect3163"
           width="3.9995728"
           height="4.5299025"
           x="4.3089318"
           y="15.095729"
           transform="translate(0,1020.3622)" />
      </g>
      <g
         id="g3165">
        <path
           transform="translate(0,1020.3622)"
           id="path3167"
           d="m 8.3125,15.125 -4,0 0,5 7.40625,3.90625 -0.96875,-4.84375 -2.4375,-1.25 0,-2.8125 z"
           style="fill:url(#linearGradient3187);fill-opacity:1;stroke:none"
           inkscape:connector-curvature="0" />
        <path
           transform="translate(0,1020.3622)"
           id="path3169"
           d="m 3.9375,15.125 0.125,0 0.25,0 4,0 1.75,0 1.4375,-3.1875 -7.4375,0 -0.125,0 c -0.8192133,0.066 -1.46875,0.75755 -1.46875,1.59375 0,0.8361 0.6495367,1.52795 1.46875,1.59375 z M 4.25,12.46875 c 0.5628073,0 1.03125,0.46845 1.03125,1.03125 0,0.5628 -0.4684427,1 -1.03125,1 -0.5628073,0 -1,-0.4372 -1,-1 0,-0.5628 0.4371927,-1.03125 1,-1.03125 z"
           style="fill:url(#linearGradient3189);fill-opacity:1;stroke:none"
           inkscape:connector-curvature="0" />
        <path
           id="path3171"
           d="m 21.222081,1029.5776 0,3.0313 0,0.2187 c 0.05354,0.5299 0.305986,1.0093 0.6875,1.3438 l -1.34375,3.4062 c 0,0 -0.678869,0.2275 -0.8125,0.5313 -0.133631,0.304 -2.5625,5.6875 -2.5625,5.6875 l 3,1.3125 c 0,0 2.236477,-5.6023 2.34375,-6.0313 0.107269,-0.4291 -0.21875,-0.9687 -0.21875,-0.9687 l 1.34375,-3.4688 c 0.855075,-0.1805 1.502987,-0.9233 1.59375,-1.8125 0.007,-0.069 0.03125,-0.148 0.03125,-0.2187 0,-0.1408 -0.0041,-0.2736 -0.03125,-0.4063 l 0,-2.625 -4.03125,0 z m 2.0625,1.7188 c 0.704607,0 1.25,0.5766 1.25,1.2812 0,0.7046 -0.545393,1.25 -1.25,1.25 -0.704607,0 -1.28125,-0.5454 -1.28125,-1.25 0,-0.7046 0.576643,-1.2812 1.28125,-1.2812 z"
           style="fill:url(#linearGradient3191);fill-opacity:1;stroke:none"
           inkscape:connector-curvature="0" />
        <path
           inkscape:connector-curvature="0"
           id="path3173"
           d="m 16.099107,1038.143 -6.7434222,0 c 0.5910647,7.0352 6.2969722,12.6107 13.4868442,12.6107 1.164025,0 2.196222,-0.3756 3.276465,-0.6478 l 1.219149,-7.8483 c -1.221328,1.0535 -2.756012,1.7525 -4.495614,1.7525 -3.456847,0 -6.192613,-2.5667 -6.743422,-5.8671 z"
           style="fill:#f5c700;fill-opacity:1;stroke:url(#linearGradient3193);stroke-opacity:1" />
        <rect
           transform="matrix(0.79194971,-0.61058633,0.61058633,0.79194971,0,0)"
           y="819.28662"
           x="-618.29755"
           height="3.4132693"
           width="7.6608934"
           id="rect3175"
           style="fill:url(#linearGradient3195);fill-opacity:1;stroke:none" />
        <path
           style="fill:#f5c700;fill-opacity:1;stroke:url(#linearGradient3197);stroke-opacity:1"
           d="m 16.099107,1035.708 -6.7434222,0 c 0.5910652,-7.0352 6.2969722,-12.6107 13.4868442,-12.6107 1.164025,0 2.196222,0.3756 3.276465,0.6478 l 1.219149,7.8483 c -1.221328,-1.0535 -2.756012,-1.7525 -4.495614,-1.7525 -3.456847,0 -6.192613,2.5667 -6.743422,5.8671 z"
           id="path3177"
           inkscape:connector-curvature="0" />
        <path
           transform="matrix(1.5745242,0,0,1.5745242,-9.9475945,1006.505)"
           d="m 18.851399,25.094042 c 0,0.549774 -0.44568,0.995453 -0.995453,0.995453 -0.549774,0 -0.995454,-0.445679 -0.995454,-0.995453 0,-0.549774 0.44568,-0.995454 0.995454,-0.995454 0.549773,0 0.995453,0.44568 0.995453,0.995454 z"
           sodipodi:ry="0.99545348"
           sodipodi:rx="0.99545348"
           sodipodi:cy="25.094042"
           sodipodi:cx="17.855946"
           id="path3179"
           style="fill:url(#radialGradient3199);fill-opacity:1;stroke:none"
           sodipodi:type="arc" />
        <path
           sodipodi:type="arc"
           style="fill:url(#radialGradient3201);fill-opacity:1;stroke:none"
           id="path3181"
           sodipodi:cx="17.855946"
           sodipodi:cy="25.094042"
           sodipodi:rx="0.99545348"
           sodipodi:ry="0.99545348"
           d="m 18.851399,25.094042 c 0,0.549774 -0.44568,0.995453 -0.995453,0.995453 -0.549774,0 -0.995454,-0.445679 -0.995454,-0.995453 0,-0.549774 0.44568,-0.995454 0.995454,-0.995454 0.549773,0 0.995453,0.44568 0.995453,0.995454 z"
           transform="matrix(2.375,0,0,2.375,-28.844818,972.79257)" />
        <path
           transform="matrix(1.7120874,0,0,1.7120874,-17.007887,989.42773)"
           d="m 18.851399,25.094042 c 0,0.549774 -0.44568,0.995453 -0.995453,0.995453 -0.549774,0 -0.995454,-0.445679 -0.995454,-0.995453 0,-0.549774 0.44568,-0.995454 0.995454,-0.995454 0.549773,0 0.995453,0.44568 0.995453,0.995454 z"
           sodipodi:ry="0.99545348"
           sodipodi:rx="0.99545348"
           sodipodi:cy="25.094042"
           sodipodi:cx="17.855946"
           id="path3183"
           style="fill:#f5c700;fill-opacity:1;stroke:none"
           sodipodi:type="arc" />
        <rect
           transform="translate(0,1020.3622)"
           y="15.095729"
           x="4.3089318"
           height="4.5299025"
           width="3.9995728"
           id="rect3185"
           style="fill:url(#linearGradient3203);fill-opacity:1;stroke:none" />
      </g>
    </g>
    <path
       style="fill:url(#linearGradient4129);fill-opacity:1;stroke:none"
       d="m 5.0859515,1036.7291 6.0000005,-5 17,0 -6,5 z"
       id="path3227"
       inkscape:connector-curvature="0"
       sodipodi:nodetypes="ccccc" />
    <g
       id="g3117"
       transform="matrix(0.65797781,0,0,0.65797781,5.2462394,350.19756)">
      <g
         style="fill:#000000;fill-opacity:1;stroke:none;filter:url(#filter4138)"
         id="g4088">
        <path
           transform="translate(0,1020.3622)"
           id="path4090"
           d="m 8.3125,15.125 -4,0 0,5 7.40625,3.90625 -0.96875,-4.84375 -2.4375,-1.25 0,-2.8125 z"
           style="fill:#000000;fill-opacity:1;stroke:none"
           inkscape:connector-curvature="0" />
        <path
           transform="translate(0,1020.3622)"
           id="path4092"
           d="m 3.9375,15.125 0.125,0 0.25,0 4,0 1.75,0 1.4375,-3.1875 -7.4375,0 -0.125,0 c -0.8192133,0.066 -1.46875,0.75755 -1.46875,1.59375 0,0.8361 0.6495367,1.52795 1.46875,1.59375 z M 4.25,12.46875 c 0.5628073,0 1.03125,0.46845 1.03125,1.03125 0,0.5628 -0.4684427,1 -1.03125,1 -0.5628073,0 -1,-0.4372 -1,-1 0,-0.5628 0.4371927,-1.03125 1,-1.03125 z"
           style="fill:#000000;fill-opacity:1;stroke:none"
           inkscape:connector-curvature="0" />
        <path
           id="path4094"
           d="m 21.222081,1029.5776 0,3.0313 0,0.2187 c 0.05354,0.5299 0.305986,1.0093 0.6875,1.3438 l -1.34375,3.4062 c 0,0 -0.678869,0.2275 -0.8125,0.5313 -0.133631,0.304 -2.5625,5.6875 -2.5625,5.6875 l 3,1.3125 c 0,0 2.236477,-5.6023 2.34375,-6.0313 0.107269,-0.4291 -0.21875,-0.9687 -0.21875,-0.9687 l 1.34375,-3.4688 c 0.855075,-0.1805 1.502987,-0.9233 1.59375,-1.8125 0.007,-0.069 0.03125,-0.148 0.03125,-0.2187 0,-0.1408 -0.0041,-0.2736 -0.03125,-0.4063 l 0,-2.625 -4.03125,0 z m 2.0625,1.7188 c 0.704607,0 1.25,0.5766 1.25,1.2812 0,0.7046 -0.545393,1.25 -1.25,1.25 -0.704607,0 -1.28125,-0.5454 -1.28125,-1.25 0,-0.7046 0.576643,-1.2812 1.28125,-1.2812 z"
           style="fill:#000000;fill-opacity:1;stroke:none"
           inkscape:connector-curvature="0" />
        <path
           inkscape:connector-curvature="0"
           id="path4096"
           d="m 16.099107,1038.143 -6.7434222,0 c 0.5910647,7.0352 6.2969722,12.6107 13.4868442,12.6107 1.164025,0 2.196222,-0.3756 3.276465,-0.6478 l 1.219149,-7.8483 c -1.221328,1.0535 -2.756012,1.7525 -4.495614,1.7525 -3.456847,0 -6.192613,-2.5667 -6.743422,-5.8671 z"
           style="fill:#000000;fill-opacity:1;stroke:none" />
        <rect
           transform="matrix(0.79194971,-0.61058633,0.61058633,0.79194971,0,0)"
           y="819.28662"
           x="-618.29755"
           height="3.4132693"
           width="7.6608934"
           id="rect4098"
           style="fill:#000000;fill-opacity:1;stroke:none" />
        <path
           style="fill:#000000;fill-opacity:1;stroke:none"
           d="m 16.099107,1035.708 -6.7434222,0 c 0.5910652,-7.0352 6.2969722,-12.6107 13.4868442,-12.6107 1.164025,0 2.196222,0.3756 3.276465,0.6478 l 1.219149,7.8483 c -1.221328,-1.0535 -2.756012,-1.7525 -4.495614,-1.7525 -3.456847,0 -6.192613,2.5667 -6.743422,5.8671 z"
           id="path4100"
           inkscape:connector-curvature="0" />
        <path
           transform="matrix(1.5745242,0,0,1.5745242,-9.9475945,1006.505)"
           d="m 18.851399,25.094042 c 0,0.549774 -0.44568,0.995453 -0.995453,0.995453 -0.549774,0 -0.995454,-0.445679 -0.995454,-0.995453 0,-0.549774 0.44568,-0.995454 0.995454,-0.995454 0.549773,0 0.995453,0.44568 0.995453,0.995454 z"
           sodipodi:ry="0.99545348"
           sodipodi:rx="0.99545348"
           sodipodi:cy="25.094042"
           sodipodi:cx="17.855946"
           id="path4102"
           style="fill:#000000;fill-opacity:1;stroke:none"
           sodipodi:type="arc" />
        <path
           sodipodi:type="arc"
           style="fill:#000000;fill-opacity:1;stroke:none"
           id="path4104"
           sodipodi:cx="17.855946"
           sodipodi:cy="25.094042"
           sodipodi:rx="0.99545348"
           sodipodi:ry="0.99545348"
           d="m 18.851399,25.094042 c 0,0.549774 -0.44568,0.995453 -0.995453,0.995453 -0.549774,0 -0.995454,-0.445679 -0.995454,-0.995453 0,-0.549774 0.44568,-0.995454 0.995454,-0.995454 0.549773,0 0.995453,0.44568 0.995453,0.995454 z"
           transform="matrix(2.375,0,0,2.375,-28.844818,972.79257)" />
        <path
           transform="matrix(1.7120874,0,0,1.7120874,-17.007887,989.42773)"
           d="m 18.851399,25.094042 c 0,0.549774 -0.44568,0.995453 -0.995453,0.995453 -0.549774,0 -0.995454,-0.445679 -0.995454,-0.995453 0,-0.549774 0.44568,-0.995454 0.995454,-0.995454 0.549773,0 0.995453,0.44568 0.995453,0.995454 z"
           sodipodi:ry="0.99545348"
           sodipodi:rx="0.99545348"
           sodipodi:cy="25.094042"
           sodipodi:cx="17.855946"
           id="path4106"
           style="fill:#000000;fill-opacity:1;stroke:none"
           sodipodi:type="arc" />
        <rect
           transform="translate(0,1020.3622)"
           y="15.095729"
           x="4.3089318"
           height="4.5299025"
           width="3.9995728"
           id="rect4108"
           style="fill:#000000;fill-opacity:1;stroke:none" />
      </g>
      <g
         id="g4000">
        <path
           style="fill:url(#linearGradient3205);fill-opacity:1;stroke:none"
           d="m 8.3125,15.125 -4,0 0,5 7.40625,3.90625 -0.96875,-4.84375 -2.4375,-1.25 0,-2.8125 z"
           id="path3982"
           transform="translate(0,1020.3622)"
           inkscape:connector-curvature="0" />
        <path
           style="fill:url(#linearGradient3207);fill-opacity:1;stroke:none"
           d="m 3.9375,15.125 0.125,0 0.25,0 4,0 1.75,0 1.4375,-3.1875 -7.4375,0 -0.125,0 c -0.8192133,0.066 -1.46875,0.75755 -1.46875,1.59375 0,0.8361 0.6495367,1.52795 1.46875,1.59375 z M 4.25,12.46875 c 0.5628073,0 1.03125,0.46845 1.03125,1.03125 0,0.5628 -0.4684427,1 -1.03125,1 -0.5628073,0 -1,-0.4372 -1,-1 0,-0.5628 0.4371927,-1.03125 1,-1.03125 z"
           id="path3838"
           transform="translate(0,1020.3622)"
           inkscape:connector-curvature="0" />
        <path
           inkscape:connector-curvature="0"
           style="fill:url(#linearGradient3209);fill-opacity:1;stroke:none"
           d="m 21.222081,1029.5776 0,3.0313 0,0.2187 c 0.05354,0.5299 0.305986,1.0093 0.6875,1.3438 l -1.34375,3.4062 c 0,0 -0.678869,0.2275 -0.8125,0.5313 -0.133631,0.304 -2.5625,5.6875 -2.5625,5.6875 l 3,1.3125 c 0,0 2.236477,-5.6023 2.34375,-6.0313 0.107269,-0.4291 -0.21875,-0.9687 -0.21875,-0.9687 l 1.34375,-3.4688 c 0.855075,-0.1805 1.502987,-0.9233 1.59375,-1.8125 0.007,-0.069 0.03125,-0.148 0.03125,-0.2187 0,-0.1408 -0.0041,-0.2736 -0.03125,-0.4063 l 0,-2.625 -4.03125,0 z m 2.0625,1.7188 c 0.704607,0 1.25,0.5766 1.25,1.2812 0,0.7046 -0.545393,1.25 -1.25,1.25 -0.704607,0 -1.28125,-0.5454 -1.28125,-1.25 0,-0.7046 0.576643,-1.2812 1.28125,-1.2812 z"
           id="path3846" />
        <path
           style="fill:#f5c700;fill-opacity:1;stroke:url(#linearGradient3211);stroke-opacity:1"
           d="m 16.099107,1038.143 -6.7434222,0 c 0.5910647,7.0352 6.2969722,12.6107 13.4868442,12.6107 1.164025,0 2.196222,-0.3756 3.276465,-0.6478 l 1.219149,-7.8483 c -1.221328,1.0535 -2.756012,1.7525 -4.495614,1.7525 -3.456847,0 -6.192613,-2.5667 -6.743422,-5.8671 z"
           id="path3836"
           inkscape:connector-curvature="0" />
        <rect
           style="fill:url(#linearGradient3213);fill-opacity:1;stroke:none"
           id="rect3852"
           width="7.6608934"
           height="3.4132693"
           x="-618.29755"
           y="819.28662"
           transform="matrix(0.79194971,-0.61058633,0.61058633,0.79194971,0,0)" />
        <path
           inkscape:connector-curvature="0"
           id="path3941"
           d="m 16.099107,1035.708 -6.7434222,0 c 0.5910652,-7.0352 6.2969722,-12.6107 13.4868442,-12.6107 1.164025,0 2.196222,0.3756 3.276465,0.6478 l 1.219149,7.8483 c -1.221328,-1.0535 -2.756012,-1.7525 -4.495614,-1.7525 -3.456847,0 -6.192613,2.5667 -6.743422,5.8671 z"
           style="fill:#f5c700;fill-opacity:1;stroke:url(#linearGradient3215);stroke-opacity:1" />
        <path
           sodipodi:type="arc"
           style="fill:url(#radialGradient3217);fill-opacity:1;stroke:none"
           id="path3860"
           sodipodi:cx="17.855946"
           sodipodi:cy="25.094042"
           sodipodi:rx="0.99545348"
           sodipodi:ry="0.99545348"
           d="m 18.851399,25.094042 c 0,0.549774 -0.44568,0.995453 -0.995453,0.995453 -0.549774,0 -0.995454,-0.445679 -0.995454,-0.995453 0,-0.549774 0.44568,-0.995454 0.995454,-0.995454 0.549773,0 0.995453,0.44568 0.995453,0.995454 z"
           transform="matrix(1.5745242,0,0,1.5745242,-9.9475945,1006.505)" />
        <path
           transform="matrix(2.375,0,0,2.375,-28.844818,972.79257)"
           d="m 18.851399,25.094042 c 0,0.549774 -0.44568,0.995453 -0.995453,0.995453 -0.549774,0 -0.995454,-0.445679 -0.995454,-0.995453 0,-0.549774 0.44568,-0.995454 0.995454,-0.995454 0.549773,0 0.995453,0.44568 0.995453,0.995454 z"
           sodipodi:ry="0.99545348"
           sodipodi:rx="0.99545348"
           sodipodi:cy="25.094042"
           sodipodi:cx="17.855946"
           id="path3862"
           style="fill:url(#radialGradient3219);fill-opacity:1;stroke:none"
           sodipodi:type="arc" />
        <path
           sodipodi:type="arc"
           style="fill:#f5c700;fill-opacity:1;stroke:none"
           id="path3883"
           sodipodi:cx="17.855946"
           sodipodi:cy="25.094042"
           sodipodi:rx="0.99545348"
           sodipodi:ry="0.99545348"
           d="m 18.851399,25.094042 c 0,0.549774 -0.44568,0.995453 -0.995453,0.995453 -0.549774,0 -0.995454,-0.445679 -0.995454,-0.995453 0,-0.549774 0.44568,-0.995454 0.995454,-0.995454 0.549773,0 0.995453,0.44568 0.995453,0.995454 z"
           transform="matrix(1.7120874,0,0,1.7120874,-17.007887,989.42773)" />
        <rect
           style="fill:url(#linearGradient3221);fill-opacity:1;stroke:none"
           id="rect3961"
           width="3.9995728"
           height="4.5299025"
           x="4.3089318"
           y="15.095729"
           transform="translate(0,1020.3622)" />
      </g>
    </g>
    <path
       style="fill:url(#radialGradient4099);fill-opacity:1;stroke:none"
       d="m 22.070324,16.362992 6.015628,-4.996092 0,13 -6.015628,4.996092 z"
       id="path4091"
       inkscape:connector-curvature="0"
       sodipodi:nodetypes="ccccc"
       transform="translate(0,1020.3622)" />
    <path
       sodipodi:nodetypes="ccccc"
       inkscape:connector-curvature="0"
       id="path4101"
       d="m 22.085952,1036.7291 2,9 6,-6 -2,-8 z"
       style="fill:#000000;fill-opacity:1;stroke:none;filter:url(#filter4111)"
       clip-path="url(#clipPath4117)" />
    <path
       style="fill:url(#linearGradient4127);fill-opacity:1;stroke:none"
       d="m 22.085952,1036.7291 2,9 6,-6 -2,-8 z"
       id="path4017"
       inkscape:connector-curvature="0"
       sodipodi:nodetypes="ccccc" />
    <g
       id="g4029"
       transform="translate(2,0)">
      <path
         style="fill:#685100;fill-opacity:1;stroke:none"
         d="m 34,1017.3622 6,-5 17,0 -6,5 z"
         id="path4021"
         inkscape:connector-curvature="0"
         sodipodi:nodetypes="ccccc" />
      <path
         inkscape:connector-curvature="0"
         id="path4023"
         d="m 32,1026.3622 2,-9 6,-5 c 0,0 -0.737277,6.2481 -2,8 -1.262723,1.7519 -6,6 -6,6 z"
         style="fill:#685100;fill-opacity:1;stroke:none"
         sodipodi:nodetypes="ccccc" />
      <path
         style="fill:#a27e00;fill-opacity:1;stroke:none"
         d="m 34,1030.3622 17,0 6,-5 0,-13 -6,5 -17,0 z"
         id="path4025"
         inkscape:connector-curvature="0"
         sodipodi:nodetypes="ccccccc" />
      <path
         style="fill:#685100;fill-opacity:1;stroke:none"
         d="m 51,1017.3622 2,9 6,-6 -2,-8 z"
         id="path4027"
         inkscape:connector-curvature="0"
         sodipodi:nodetypes="ccccc" />
    </g>
    <rect
       style="fill:url(#radialGradient4089);fill-opacity:1;fill-rule:nonzero;stroke:none"
       id="rect4081"
       width="16.999998"
       height="12.999999"
       x="5.0859513"
       y="16.366899"
       transform="translate(0,1020.3622)" />
    <path
       style="fill:#8c8a81;fill-opacity:1;fill-rule:nonzero;stroke:none"
       d="M 13.1875 18.125 C 10.426076 18.125 8.1875 20.363576 8.1875 23.125 C 8.1875 25.886424 10.426076 28.125 13.1875 28.125 C 15.948924 28.125 18.1875 25.886424 18.1875 23.125 C 18.1875 20.363576 15.948924 18.125 13.1875 18.125 z M 13.1875 21.5 C 14.084963 21.5 14.8125 22.227537 14.8125 23.125 C 14.8125 24.022463 14.084963 24.75 13.1875 24.75 C 12.290037 24.75 11.5625 24.022463 11.5625 23.125 C 11.5625 22.227537 12.290037 21.5 13.1875 21.5 z "
       transform="translate(0,1020.3622)"
       id="path4147" />
    <path
       id="path4152"
       d="M 13.1875 18.125 C 10.426076 18.125 8.1875 20.363576 8.1875 23.125 C 8.1875 25.886424 10.426076 28.125 13.1875 28.125 C 15.948924 28.125 18.1875 25.886424 18.1875 23.125 C 18.1875 20.363576 15.948924 18.125 13.1875 18.125 z M 13.1875 21.5 C 14.084963 21.5 14.8125 22.227537 14.8125 23.125 C 14.8125 24.022463 14.084963 24.75 13.1875 24.75 C 12.290037 24.75 11.5625 24.022463 11.5625 23.125 C 11.5625 22.227537 12.290037 21.5 13.1875 21.5 z "
       style="fill:url(#linearGradient4165);fill-opacity:1;fill-rule:nonzero;stroke:none"
       transform="translate(0,1020.3622)" />
    <path
       style="fill:url(#linearGradient4169);fill-opacity:1;fill-rule:nonzero;stroke:none"
       d="M 13.1875 18.125 C 10.426076 18.125 8.1875 20.363576 8.1875 23.125 C 8.1875 25.886424 10.426076 28.125 13.1875 28.125 C 15.948924 28.125 18.1875 25.886424 18.1875 23.125 C 18.1875 20.363576 15.948924 18.125 13.1875 18.125 z M 13.1875 21.5 C 14.084963 21.5 14.8125 22.227537 14.8125 23.125 C 14.8125 24.022463 14.084963 24.75 13.1875 24.75 C 12.290037 24.75 11.5625 24.022463 11.5625 23.125 C 11.5625 22.227537 12.290037 21.5 13.1875 21.5 z "
       id="path4167"
       transform="translate(0,1020.3622)" />
    <path
       style="fill:url(#linearGradient4183);fill-opacity:1;fill-rule:nonzero;stroke:none"
       d="M 13.1875 20.875 C 11.944859 20.875 10.9375 21.882359 10.9375 23.125 C 10.9375 24.367641 11.944859 25.375 13.1875 25.375 C 14.430141 25.375 15.4375 24.367641 15.4375 23.125 C 15.4375 21.882359 14.430141 20.875 13.1875 20.875 z M 13.1875 21.46875 C 14.102222 21.46875 14.84375 22.210278 14.84375 23.125 C 14.84375 24.039722 14.102222 24.78125 13.1875 24.78125 C 12.272778 24.78125 11.53125 24.039722 11.53125 23.125 C 11.53125 22.210278 12.272778 21.46875 13.1875 21.46875 z "
       transform="translate(0,1020.3622)"
       id="path4154" />
    <rect
       transform="translate(0,1020.3622)"
       y="16.366899"
       x="5.0859513"
       height="12.999999"
       width="16.999998"
       id="rect4195"
       style="fill:url(#radialGradient4203);fill-opacity:1;fill-rule:nonzero;stroke:none" />
  </g>
</svg>
