<?xml version="1.0" encoding="UTF-8" standalone="no"?>
<svg
   xmlns:dc="http://purl.org/dc/elements/1.1/"
   xmlns:cc="http://creativecommons.org/ns#"
   xmlns:rdf="http://www.w3.org/1999/02/22-rdf-syntax-ns#"
   xmlns:svg="http://www.w3.org/2000/svg"
   xmlns="http://www.w3.org/2000/svg"
   version="1.1"
   id="svg2"
   viewBox="0 0 1024 147.6477"
   height="147.64769"
   width="1024">
  <defs
     id="defs4">
    <clipPath
       clipPathUnits="userSpaceOnUse"
       id="clipPath3378">
      <path
         d="m 0,340.16 340.16,0 L 340.16,0 0,0 0,340.16 Z"
         id="path3380" />
    </clipPath>
    <clipPath
       clipPathUnits="userSpaceOnUse"
       id="clipPath3416">
      <path
         d="m 0,340.16 340.16,0 L 340.16,0 0,0 0,340.16 Z"
         id="path3418" />
    </clipPath>
  </defs>
  <metadata
     id="metadata7">
    <rdf:RDF>
      <cc:Work
         rdf:about="">
        <dc:format>image/svg+xml</dc:format>
        <dc:type
           rdf:resource="http://purl.org/dc/dcmitype/StillImage" />
        <dc:title></dc:title>
      </cc:Work>
    </rdf:RDF>
  </metadata>
  <g
     style="fill:#231f20;fill-opacity:1"
     transform="matrix(14.533506,0,0,14.533506,-9244.548,-12780.435)"
     id="layer1">
    <g
       style="fill:#231f20;fill-opacity:1"
       id="g3344"
       transform="matrix(1.25,0,0,-1.25,878.82857,1159.248)">
      <g
         style="fill:#231f20;fill-opacity:1"
         id="g3370"
         transform="translate(-188.2627,217.7737)">
        <path
           d="m 0,0 0,-1.885 -5.932,0 0,7.887 5.932,0 0,-1.82 -3.559,0 0,-1.145 2.878,0 0,-1.748 -2.878,0 L -3.559,0 0,0 Z"
           style="fill:#231f20;fill-opacity:1;fill-rule:nonzero;stroke:none"
           id="path3372" />
      </g>
      <g
         style="fill:#231f20;fill-opacity:1"
         transform="translate(-282.91409,169.4475)"
         id="g3374">
        <g
           style="fill:#231f20;fill-opacity:1"
           id="g3376"
           clip-path="url(#clipPath3378)">
          <g
             style="fill:#231f20;fill-opacity:1"
             id="g3382"
             transform="translate(98.2373,51)">
            <path
               d="m 0,0 -0.809,0 0,1.523 0.89,0 C 0.74,1.523 1.069,1.279 1.069,0.785 1.069,0.262 0.713,0 0,0 m 5.735,1.437 2.788,0 0,1.891 -2.505,0 C 4.96,3.328 4.269,3.201 3.705,2.707 3.475,2.508 3.296,2.285 3.158,2.045 3.138,2.08 3.117,2.119 3.093,2.154 2.838,2.551 2.49,2.846 2.054,3.039 1.616,3.232 0.979,3.328 0.139,3.328 l -3.368,0 0,-7.887 2.456,0 0,2.866 1.369,0 c 0.873,0 1.572,0.232 2.096,0.695 0.222,0.193 0.393,0.416 0.521,0.664 C 3.271,-0.418 3.336,-0.5 3.41,-0.582 3.803,-1.01 3.896,-1.15 4.937,-1.6 L 5.73,-1.918 c 0.145,-0.057 0.245,-0.209 0.245,-0.363 0,-0.233 -0.201,-0.393 -0.389,-0.393 l -3.57,0 0,-1.885 3.02,0 c 1.051,0 1.782,-0.045 2.426,0.455 0.518,0.403 0.97,1.049 0.97,1.846 0,0.506 -0.133,0.944 -0.399,1.315 -0.264,0.373 -0.597,0.636 -0.993,0.789 l -1.559,0.74 c -0.145,0.086 -0.228,0.25 -0.228,0.396 0,0.268 0.216,0.455 0.482,0.455"
               style="fill:#231f20;fill-opacity:1;fill-rule:nonzero;stroke:none"
               id="path3384" />
          </g>
          <path
             d="m 109.539,46.441 -2.42,0 0,5.639 2.42,0 0,-5.639 z"
             style="fill:#231f20;fill-opacity:1;fill-rule:nonzero;stroke:none"
             id="path3386" />
          <path
             d="m 109.539,52.438 -2.42,0 0,1.891 2.42,0 0,-1.891 z"
             style="fill:#231f20;fill-opacity:1;fill-rule:nonzero;stroke:none"
             id="path3388" />
          <g
             style="fill:#231f20;fill-opacity:1"
             id="g3390"
             transform="translate(113.8398,52.4375)">
            <path
               d="m 0,0 0,-5.996 -2.293,0 0,5.996 -1.65,0 0,1.891 5.577,0 L 1.634,0 0,0 Z"
               style="fill:#231f20;fill-opacity:1;fill-rule:nonzero;stroke:none"
               id="path3392" />
          </g>
          <g
             style="fill:#231f20;fill-opacity:1"
             id="g3394"
             transform="translate(121.7627,48.3262)">
            <path
               d="m 0,0 0,-1.885 -5.931,0 0,7.887 5.931,0 0,-1.82 -3.558,0 0,-1.145 2.877,0 0,-1.748 -2.877,0 L -3.558,0 0,0 Z"
               style="fill:#231f20;fill-opacity:1;fill-rule:nonzero;stroke:none"
               id="path3396" />
          </g>
          <g
             style="fill:#231f20;fill-opacity:1"
             id="g3398"
             transform="translate(126.4424,49.4531)">
            <path
               d="M 0,0 2.213,-0.135 C 2.108,-1.102 1.752,-1.842 1.142,-2.357 c -0.61,-0.516 -1.361,-0.774 -2.249,-0.774 -1.072,0 -1.936,0.354 -2.595,1.061 -0.658,0.711 -0.987,1.687 -0.987,2.935 0,1.237 0.312,2.235 0.935,2.992 0.624,0.758 1.494,1.139 2.612,1.139 1.042,0 1.844,-0.291 2.404,-0.867 C 1.823,3.551 2.14,2.783 2.213,1.83 L -0.046,1.709 c 0,0.527 -0.1,0.908 -0.304,1.143 -0.201,0.236 -0.439,0.353 -0.712,0.353 -0.761,0 -1.143,-0.767 -1.143,-2.299 0,-0.859 0.1,-1.441 0.297,-1.75 0.198,-0.308 0.476,-0.463 0.835,-0.463 0.639,0 0.997,0.434 1.073,1.307"
               style="fill:#231f20;fill-opacity:1;fill-rule:nonzero;stroke:none"
               id="path3400" />
          </g>
          <g
             style="fill:#231f20;fill-opacity:1"
             id="g3402"
             transform="translate(140.4697,49.7168)">
            <path
               d="M 0,0 0.638,2.289 1.276,0 0,0 Z m 2.145,4.611 -2.561,0 -1.448,-4.689 c -0.065,0.246 -0.169,0.473 -0.317,0.68 -0.264,0.371 -0.595,0.634 -0.994,0.787 -0.395,0.154 -1.066,0.332 -2.011,0.529 -0.34,0.074 -0.573,0.15 -0.691,0.23 -0.119,0.082 -0.18,0.196 -0.18,0.342 0,0.326 0.264,0.49 0.791,0.49 0.636,0 1.057,-0.261 1.265,-0.791 l 2.004,0.608 C -2.512,4.088 -3.574,4.732 -5.179,4.732 -6.238,4.732 -7.049,4.484 -7.613,3.99 -8.178,3.498 -8.46,2.881 -8.46,2.137 c 0,-0.578 0.196,-1.08 0.59,-1.508 0.392,-0.426 1.279,-0.774 2.662,-1.039 0.362,-0.072 0.614,-0.156 0.754,-0.25 0.142,-0.096 0.211,-0.227 0.211,-0.395 0,-0.324 -0.304,-0.486 -0.913,-0.486 -0.781,0 -1.267,0.316 -1.454,0.953 l -2.247,-0.404 c 0.45,-1.604 1.634,-2.403 3.556,-2.403 1.052,0 1.902,0.247 2.548,0.745 0.045,0.033 0.087,0.07 0.13,0.107 l -0.227,-0.732 1.965,0 0.474,1.554 2.111,0 0.446,-1.554 2.47,0 -2.471,7.886 z"
               style="fill:#231f20;fill-opacity:1;fill-rule:nonzero;stroke:none"
               id="path3404" />
          </g>
        </g>
      </g>
      <g
         style="fill:#231f20;fill-opacity:1"
         id="g3412">
        <g
           style="fill:#231f20;fill-opacity:1"
           id="g3414"
           clip-path="url(#clipPath3416)" />
      </g>
    </g>
  </g>
</svg>
