<?xml version="1.0" encoding="UTF-8" standalone="no"?>
<svg
   xmlns:dc="http://purl.org/dc/elements/1.1/"
   xmlns:cc="http://creativecommons.org/ns#"
   xmlns:rdf="http://www.w3.org/1999/02/22-rdf-syntax-ns#"
   xmlns:svg="http://www.w3.org/2000/svg"
   xmlns="http://www.w3.org/2000/svg"
   version="1.1"
   id="svg3390"
   viewBox="0 0 640.00001 800.00002"
   height="800"
   width="640">
  <defs
     id="defs3392" />
  <metadata
     id="metadata3395">
    <rdf:RDF>
      <cc:Work
         rdf:about="">
        <dc:format>image/svg+xml</dc:format>
        <dc:type
           rdf:resource="http://purl.org/dc/dcmitype/StillImage" />
        <dc:title></dc:title>
      </cc:Work>
    </rdf:RDF>
  </metadata>
  <g
     transform="translate(64,-540.36214)"
     id="layer1">
    <g
       id="layer1-2"
       transform="matrix(0.9395627,0,0,0.93956263,-407.68014,-34.051353)">
      <g
         id="g3889"
         transform="translate(450.37131,75.467625)">
        <rect
           style="fill:#005080;fill-opacity:1;fill-rule:nonzero;stroke:none"
           id="rect4463"
           y="646.58478"
           x="-10.081226"
           height="319.29752"
           width="532.16248" />
        <path
           id="rect3079"
           d="m 175.1113,535.89502 -80.888686,80.8887 -110.68979,0 0,381.02839 110.68979,0 80.888686,83.01729 161.77739,0 80.88869,-83.01729 110.68979,0 0,-381.02839 -110.68979,0 -80.88869,-80.8887 -161.77739,0 z m 73.51325,143.64022 c 12.26503,0.0172 24.76797,1.75363 37.17654,5.36528 l 10.64325,74.50275 c -47.91104,-25.49344 -96.92158,-2.28364 -97.91789,45.76598 l -75.56707,0 c 0.13315,-75.68169 59.43408,-125.72691 125.66517,-125.63401 z m 191.04632,0 c 12.26503,0.0172 24.76797,1.75364 37.17654,5.36528 l 10.64325,74.50275 c -47.91104,-25.4934 -96.92159,-2.28363 -97.91789,45.76598 l -75.56707,0 c 0.13315,-75.68168 59.43408,-125.72689 125.66517,-125.63401 z m -416.758026,0.57582 78.760046,18.09352 0,63.32734 -78.760046,-18.09352 0,-63.32734 z m 0,76.09924 78.760046,18.09352 0,158.58439 -78.760046,0 0,-176.67791 z m 100.578706,61.73085 75.56706,0 c 15.99747,54.10461 75.19055,50.77562 97.38573,33.17701 l -10.64325,77.88075 c -82.32298,16.6709 -156.2134,-27.05704 -162.30954,-111.05776 z m 191.04632,0 75.56706,0 c 15.99747,54.10459 75.19055,50.7756 97.38573,33.17701 l -10.64325,77.88075 c -82.32298,16.6709 -156.2134,-27.05706 -162.30954,-111.05776 z"
           style="fill:#00c0ff;fill-opacity:1;fill-rule:nonzero;stroke:none" />
      </g>
      <g
         style="fill:#393939;fill-opacity:1;stroke:none"
         id="g4059"
         transform="matrix(1.1679463,0,0,1.1679463,-82.381474,-106.01076)">
        <g
           style="fill:#393939;fill-opacity:1;stroke:none"
           id="g4028" />
        <g
           style="fill:#393939;fill-opacity:1;stroke:none"
           id="g4024" />
      </g>
      <g
         id="flowRoot4141"
         style="font-style:normal;font-variant:normal;font-weight:bold;font-stretch:normal;font-size:95.78924561px;line-height:86.00000143%;font-family:'Ubuntu Mono';-inkscape-font-specification:'Ubuntu Mono, Bold';text-align:center;letter-spacing:0px;word-spacing:0px;writing-mode:lr-tb;text-anchor:middle;fill:#00c0ff;fill-opacity:1;stroke:none;stroke-width:1px;stroke-linecap:butt;stroke-linejoin:miter;stroke-opacity:1"
         transform="matrix(1.1088587,0,0,1.1088587,-69.355402,-95.701998)">
        <path
           id="path4154"
           style=""
           d="m 392.42398,1224.6712 0,-9.7705 12.93155,0 0,-39.7525 -12.93155,0 0,-9.7705 37.64517,0 0,9.7705 -12.83576,0 0,39.7525 12.83576,0 0,9.7705 -37.64517,0 z" />
        <path
           id="path4156"
           style=""
           d="m 441.1807,1181.0871 q 3.16105,-0.8621 7.75893,-1.6284 4.69368,-0.7663 10.15366,-0.7663 5.3642,0 8.9084,1.5326 3.5442,1.4369 5.55578,4.2148 2.10736,2.6821 2.96946,6.5136 0.86211,3.7358 0.86211,8.3337 l 0,25.3841 -11.78208,0 0,-23.8515 q 0,-6.3221 -1.43684,-9.1 -1.43684,-2.7778 -5.84314,-2.7778 -1.34105,0 -2.6821,0.096 -1.24526,0.096 -2.6821,0.2874 l 0,35.3462 -11.78208,0 0,-43.5841 z" />
        <path
           id="path4158"
           style=""
           d="m 496.73847,1189.4208 -10.24945,0 0,-9.7705 10.24945,0 0,-11.3031 11.78207,-1.9158 0,13.2189 18.87048,0 0,9.7705 -18.87048,0 0,18.2 q 0,2.4905 0.47895,4.0231 0.47895,1.5326 1.34105,2.3947 0.8621,0.8621 2.10736,1.1495 1.24526,0.2874 2.77789,0.2874 1.62842,0 2.96947,-0.096 1.43684,-0.096 2.6821,-0.2874 1.34105,-0.2874 2.68209,-0.7663 1.43684,-0.4789 3.06526,-1.2453 l 1.62842,10.1537 q -3.25684,1.3411 -7.08841,1.9158 -3.73578,0.5747 -7.27998,0.5747 -4.11894,0 -7.27998,-0.6705 -3.16105,-0.6705 -5.3642,-2.5863 -2.20315,-1.9158 -3.35262,-5.3642 -1.14947,-3.5442 -1.14947,-9.1958 l 0,-18.4873 z" />
        <path
           id="path4160"
           style=""
           d="m 533.90469,1202.5439 q 0,-5.9389 1.82,-10.441 1.81999,-4.5021 4.78946,-7.4716 2.96947,-3.0652 6.80104,-4.5978 3.83157,-1.5327 7.85472,-1.5327 9.96208,0 15.1347,5.939 5.17262,5.8431 5.17262,17.1462 0,1.1495 -0.0958,2.3948 0,1.2452 -0.0958,2.0115 l -29.21572,0 q 0,4.4063 3.63999,6.9927 3.63999,2.4905 9.38734,2.4905 3.54421,0 6.70525,-0.7663 3.25684,-0.7664 5.45999,-1.5327 l 1.62842,10.0579 q -3.06526,1.0537 -6.51367,1.7242 -3.44842,0.7663 -7.75893,0.7663 -5.74736,0 -10.34524,-1.4368 -4.50209,-1.5326 -7.75893,-4.4063 -3.16104,-2.9695 -4.88525,-7.28 -1.72421,-4.3105 -1.72421,-10.0579 z m 30.17362,-4.6936 q 0,-1.82 -0.47895,-3.4485 -0.47895,-1.7242 -1.53263,-3.0652 -1.05368,-1.3411 -2.6821,-2.1074 -1.62841,-0.8621 -4.02315,-0.8621 -2.29894,0 -4.02314,0.7663 -1.62842,0.7663 -2.77789,2.1074 -1.05368,1.341 -1.72421,3.0652 -0.57473,1.7243 -0.76631,3.5443 l 18.00838,0 z" />
        <path
           id="path4162"
           style=""
           d="m 620.68975,1191.6239 q -1.14947,-0.2873 -2.77789,-0.5747 -1.53263,-0.2874 -3.16104,-0.4789 -1.62842,-0.2874 -3.16105,-0.3832 -1.53263,-0.096 -2.58631,-0.096 -2.49052,0 -4.88525,0.2874 -2.39473,0.1916 -4.88525,0.8621 l 0,33.4304 -11.87787,0 0,-42.0514 q 4.69368,-1.7242 9.57893,-2.7779 4.98104,-1.0537 11.5905,-1.0537 0.95789,0 2.68209,0.096 1.82,0.096 3.83157,0.3831 2.01158,0.1916 4.02315,0.5748 2.10737,0.2873 3.73578,0.8621 l -2.10736,10.9199 z" />
        <path
           id="path4164"
           style=""
           d="m 632.75919,1181.0871 q 3.16105,-0.8621 7.75893,-1.6284 4.69368,-0.7663 10.15366,-0.7663 5.3642,0 8.9084,1.5326 3.54421,1.4369 5.55578,4.2148 2.10736,2.6821 2.96947,6.5136 0.8621,3.7358 0.8621,8.3337 l 0,25.3841 -11.78208,0 0,-23.8515 q 0,-6.3221 -1.43684,-9.1 -1.43684,-2.7778 -5.84314,-2.7778 -1.34105,0 -2.6821,0.096 -1.24526,0.096 -2.6821,0.2874 l 0,35.3462 -11.78208,0 0,-43.5841 z" />
        <path
           id="path4166"
           style=""
           d="m 698.6622,1216.2418 q 1.91578,0 3.73578,0 1.81999,-0.096 3.16104,-0.2874 l 0,-10.3452 q -1.14947,-0.1916 -2.77789,-0.2874 -1.62841,-0.1916 -2.96946,-0.1916 -1.82,0 -3.54421,0.2874 -1.7242,0.1916 -3.06525,0.7663 -1.24526,0.5748 -2.01158,1.6284 -0.76631,1.0537 -0.76631,2.7779 0,3.0653 2.29894,4.4063 2.29894,1.2453 5.93894,1.2453 z m -1.05369,-37.741 q 5.55578,0 9.19577,1.3411 3.73578,1.2452 5.93893,3.64 2.20316,2.2989 3.16105,5.7473 0.95789,3.3526 0.95789,7.5674 l 0,26.821 q -2.58631,0.5747 -7.66314,1.341 -5.07683,0.7663 -11.39892,0.7663 -4.31051,0 -7.85472,-0.7663 -3.44841,-0.7663 -5.93893,-2.4905 -2.49052,-1.82 -3.83157,-4.5979 -1.34105,-2.8737 -1.34105,-6.9926 0,-3.9274 1.53263,-6.6095 1.53263,-2.6821 4.11894,-4.3105 2.58631,-1.6284 5.93893,-2.2989 3.35262,-0.7663 6.99262,-0.7663 4.59788,0 8.14208,0.7663 l 0,-1.4369 q 0,-3.3526 -2.10736,-5.5557 -2.10737,-2.299 -7.27998,-2.299 -3.35263,0 -6.51367,0.479 -3.06526,0.4789 -4.98104,1.1494 l -1.62842,-9.4831 q 2.20315,-0.7663 6.2263,-1.3411 4.02315,-0.6705 8.33366,-0.6705 z" />
        <path
           id="path4168"
           style=""
           d="m 736.21158,1189.4208 -10.24945,0 0,-9.7705 10.24945,0 0,-11.3031 11.78208,-1.9158 0,13.2189 18.87048,0 0,9.7705 -18.87048,0 0,18.2 q 0,2.4905 0.47894,4.0231 0.47895,1.5326 1.34105,2.3947 0.86211,0.8621 2.10737,1.1495 1.24526,0.2874 2.77788,0.2874 1.62842,0 2.96947,-0.096 1.43684,-0.096 2.6821,-0.2874 1.34105,-0.2874 2.6821,-0.7663 1.43684,-0.4789 3.06525,-1.2453 l 1.62842,10.1537 q -3.25683,1.3411 -7.0884,1.9158 -3.73578,0.5747 -7.27999,0.5747 -4.11893,0 -7.27998,-0.6705 -3.16104,-0.6705 -5.3642,-2.5863 -2.20315,-1.9158 -3.35262,-5.3642 -1.14947,-3.5442 -1.14947,-9.1958 l 0,-18.4873 z" />
        <path
           id="path4170"
           style=""
           d="m 797.61249,1166.7187 q 0,3.4485 -2.20316,5.46 -2.20315,2.0116 -5.2684,2.0116 -3.06526,0 -5.26841,-2.0116 -2.10737,-2.0115 -2.10737,-5.46 0,-3.5442 2.10737,-5.5557 2.20315,-2.0116 5.26841,-2.0116 3.06525,0 5.2684,2.0116 2.20316,2.0115 2.20316,5.5557 z m 17.52943,56.0368 q -3.63999,1.7242 -6.89683,2.2989 -3.16104,0.6705 -5.84314,0.6705 -4.59789,0 -7.75893,-1.341 -3.06526,-1.3411 -4.98104,-3.8316 -1.82,-2.5863 -2.58631,-6.2263 -0.76631,-3.64 -0.76631,-8.3337 l 0,-16.5715 -12.45261,0 0,-9.7705 24.23468,0 0,27.8747 q 0,4.0231 1.43684,6.0347 1.53263,1.9158 4.98104,1.9158 1.62842,0 3.92736,-0.3832 2.29894,-0.4789 5.17262,-1.82 l 1.53263,9.4832 z" />
        <path
           id="path4172"
           style=""
           d="m 863.51549,1202.065 q 0,5.3642 -1.53263,9.7705 -1.53263,4.3105 -4.31052,7.4715 -2.77788,3.1611 -6.70524,4.8853 -3.83157,1.7242 -8.62104,1.7242 -4.78946,0 -8.71682,-1.7242 -3.83157,-1.7242 -6.70524,-4.8853 -2.77789,-3.161 -4.31052,-7.4715 -1.53263,-4.4063 -1.53263,-9.7705 0,-5.2684 1.53263,-9.5789 1.62842,-4.4064 4.4063,-7.4716 2.87368,-3.1611 6.80104,-4.7895 3.92736,-1.7242 8.52524,-1.7242 4.69368,0 8.52525,1.7242 3.92736,1.6284 6.70524,4.7895 2.87368,3.0652 4.40631,7.4716 1.53263,4.3105 1.53263,9.5789 z m -30.46098,0.096 q 0,6.0347 2.10736,9.7705 2.20315,3.7358 6.99262,3.7358 4.59788,0 6.89682,-3.7358 2.39473,-3.7358 2.39473,-9.7705 0,-6.0348 -2.20315,-9.6747 -2.10736,-3.7358 -6.89683,-3.7358 -4.59788,0 -6.99261,3.7358 -2.29894,3.6399 -2.29894,9.6747 z" />
        <path
           id="path4174"
           style=""
           d="m 872.23231,1181.0871 q 3.16104,-0.8621 7.75893,-1.6284 4.69367,-0.7663 10.15366,-0.7663 5.3642,0 8.9084,1.5326 3.5442,1.4369 5.55577,4.2148 2.10737,2.6821 2.96947,6.5136 0.8621,3.7358 0.8621,8.3337 l 0,25.3841 -11.78207,0 0,-23.8515 q 0,-6.3221 -1.43684,-9.1 -1.43684,-2.7778 -5.84315,-2.7778 -1.34105,0 -2.6821,0.096 -1.24526,0.096 -2.68209,0.2874 l 0,35.3462 -11.78208,0 0,-43.5841 z" />
        <path
           id="path4176"
           style=""
           d="m 938.13528,1216.2418 q 1.91578,0 3.73578,0 1.82,-0.096 3.16104,-0.2874 l 0,-10.3452 q -1.14947,-0.1916 -2.77788,-0.2874 -1.62842,-0.1916 -2.96947,-0.1916 -1.82,0 -3.5442,0.2874 -1.72421,0.1916 -3.06526,0.7663 -1.24526,0.5748 -2.01157,1.6284 -0.76632,1.0537 -0.76632,2.7779 0,3.0653 2.29895,4.4063 2.29894,1.2453 5.93893,1.2453 z m -1.05368,-37.741 q 5.55577,0 9.19576,1.3411 3.73579,1.2452 5.93894,3.64 2.20315,2.2989 3.16104,5.7473 0.9579,3.3526 0.9579,7.5674 l 0,26.821 q -2.58631,0.5747 -7.66314,1.341 -5.07683,0.7663 -11.39892,0.7663 -4.31052,0 -7.85472,-0.7663 -3.44842,-0.7663 -5.93894,-2.4905 -2.49052,-1.82 -3.83157,-4.5979 -1.34104,-2.8737 -1.34104,-6.9926 0,-3.9274 1.53262,-6.6095 1.53263,-2.6821 4.11894,-4.3105 2.58631,-1.6284 5.93893,-2.2989 3.35263,-0.7663 6.99262,-0.7663 4.59788,0 8.14208,0.7663 l 0,-1.4369 q 0,-3.3526 -2.10736,-5.5557 -2.10736,-2.299 -7.27998,-2.299 -3.35262,0 -6.51367,0.479 -3.06526,0.4789 -4.98104,1.1494 l -1.62842,-9.4831 q 2.20315,-0.7663 6.2263,-1.3411 4.02315,-0.6705 8.33367,-0.6705 z" />
        <path
           id="path4178"
           style=""
           d="m 1006.7204,1222.7555 q -0.2874,0.1915 -1.341,0.6705 -0.9579,0.4789 -2.5863,1.0537 -1.6285,0.4789 -4.0232,0.8621 -2.29894,0.3831 -5.26841,0.3831 -8.14208,0 -11.87786,-4.7894 -3.73578,-4.8853 -3.73578,-14.1768 l 0,-38.22 -12.45261,0 0,-9.7705 24.23468,0 0,48.8526 q 0,4.5978 1.82,6.2263 1.81999,1.6284 4.59788,1.6284 3.54421,0 5.9389,-0.9579 2.3948,-0.9579 3.1611,-1.2453 l 1.5326,9.4832 z" />
        <path
           id="path4180"
           style=""
           d="m 559.28884,1308.2953 q -12.54839,0 -19.15785,-8.0463 -6.60945,-8.0463 -6.60945,-22.8936 0,-7.3758 2.01157,-13.1232 2.01157,-5.7473 5.55578,-9.6747 3.63999,-4.0231 8.52524,-6.0347 4.98104,-2.1074 10.82418,-2.1074 3.16105,0 5.65157,0.5748 2.58631,0.4789 4.50209,1.1494 1.91579,0.6706 3.16105,1.4369 1.34105,0.7663 2.01157,1.1494 l -3.06525,9.3874 q -2.20316,-1.4368 -5.3642,-2.3947 -3.06526,-1.0537 -7.0884,-1.0537 -2.77789,0 -5.45999,1.0537 -2.58631,0.9579 -4.69367,3.3526 -2.01158,2.2989 -3.35263,6.2263 -1.24526,3.9273 -1.24526,9.7705 0,10.1536 3.44841,15.6136 3.54421,5.3642 11.49471,5.3642 4.59789,0 7.56735,-1.0536 3.06526,-1.0537 4.88526,-2.1074 l 2.96946,9.2915 q -2.49052,1.5327 -6.80103,2.8737 -4.21473,1.2453 -9.77051,1.2453 z" />
        <path
           id="path4182"
           style=""
           d="m 624.04237,1284.4438 q 0,5.3642 -1.53262,9.7705 -1.53263,4.3105 -4.31052,7.4715 -2.77789,3.1611 -6.70525,4.8853 -3.83157,1.7242 -8.62103,1.7242 -4.78946,0 -8.71682,-1.7242 -3.83157,-1.7242 -6.70525,-4.8853 -2.77789,-3.161 -4.31051,-7.4715 -1.53263,-4.4063 -1.53263,-9.7705 0,-5.2684 1.53263,-9.579 1.62841,-4.4063 4.4063,-7.4715 2.87368,-3.1611 6.80104,-4.7895 3.92736,-1.7242 8.52524,-1.7242 4.69367,0 8.52524,1.7242 3.92736,1.6284 6.70525,4.7895 2.87368,3.0652 4.40631,7.4715 1.53262,4.3106 1.53262,9.579 z m -30.46098,0.096 q 0,6.0347 2.10737,9.7705 2.20315,3.7357 6.99261,3.7357 4.59789,0 6.89683,-3.7357 2.39473,-3.7358 2.39473,-9.7705 0,-6.0348 -2.20315,-9.6748 -2.10737,-3.7357 -6.89683,-3.7357 -4.59788,0 -6.99262,3.7357 -2.29894,3.64 -2.29894,9.6748 z" />
        <path
           id="path4184"
           style=""
           d="m 671.45805,1305.1342 q -0.28737,0.1916 -1.34105,0.6706 -0.95789,0.4789 -2.58631,1.0536 -1.62842,0.479 -4.02315,0.8621 -2.29894,0.3832 -5.26841,0.3832 -8.14208,0 -11.87786,-4.7895 -3.73578,-4.8852 -3.73578,-14.1768 l 0,-38.2199 -12.45261,0 0,-9.7705 24.23468,0 0,48.8525 q 0,4.5979 1.82,6.2263 1.82,1.6285 4.59788,1.6285 3.54421,0 5.93894,-0.9579 2.39473,-0.9579 3.16104,-1.2453 l 1.53263,9.4831 z" />
        <path
           id="path4186"
           style=""
           d="m 719.83162,1284.4438 q 0,5.3642 -1.53263,9.7705 -1.53263,4.3105 -4.31052,7.4715 -2.77788,3.1611 -6.70524,4.8853 -3.83157,1.7242 -8.62103,1.7242 -4.78947,0 -8.71683,-1.7242 -3.83157,-1.7242 -6.70524,-4.8853 -2.77789,-3.161 -4.31052,-7.4715 -1.53263,-4.4063 -1.53263,-9.7705 0,-5.2684 1.53263,-9.579 1.62842,-4.4063 4.40631,-7.4715 2.87367,-3.1611 6.80103,-4.7895 3.92736,-1.7242 8.52525,-1.7242 4.69367,0 8.52524,1.7242 3.92736,1.6284 6.70525,4.7895 2.87367,3.0652 4.4063,7.4715 1.53263,4.3106 1.53263,9.579 z m -30.46098,0.096 q 0,6.0347 2.10736,9.7705 2.20315,3.7357 6.99262,3.7357 4.59788,0 6.89682,-3.7357 2.39473,-3.7358 2.39473,-9.7705 0,-6.0348 -2.20315,-9.6748 -2.10736,-3.7357 -6.89682,-3.7357 -4.59789,0 -6.99262,3.7357 -2.29894,3.64 -2.29894,9.6748 z" />
        <path
           id="path4188"
           style=""
           d="m 755.56101,1284.2522 q 0,-6.3221 -2.10737,-9.6747 -2.01157,-3.3527 -6.2263,-3.3527 -1.91578,0 -3.83157,0.5748 -1.81999,0.4789 -3.16104,1.2452 l 0,24.4263 q 1.34105,0.2874 2.77789,0.3832 1.53262,0.096 2.58631,0.096 4.59788,0 7.27998,-3.0652 2.6821,-3.1611 2.6821,-10.6326 z m 11.97365,0.2874 q 0,5.3641 -1.43684,9.7705 -1.43683,4.3105 -4.21472,7.3757 -2.77789,3.0653 -6.80104,4.7895 -4.02315,1.6284 -9.19577,1.6284 -4.59788,0 -9.38734,-0.6705 -4.78946,-0.6705 -8.0463,-1.7242 l 0,-63.1251 11.78208,-2.0116 0,22.5105 q 2.49052,-1.1495 4.78946,-1.5327 2.29894,-0.4789 4.59788,-0.4789 4.40631,0 7.75893,1.7242 3.35263,1.6284 5.55578,4.7895 2.29894,3.0652 3.44841,7.3757 1.14947,4.3105 1.14947,9.579 z" />
        <path
           id="path4190"
           style=""
           d="m 815.62086,1284.4438 q 0,5.3642 -1.53262,9.7705 -1.53263,4.3105 -4.31052,7.4715 -2.77789,3.1611 -6.70525,4.8853 -3.83157,1.7242 -8.62103,1.7242 -4.78946,0 -8.71682,-1.7242 -3.83157,-1.7242 -6.70525,-4.8853 -2.77789,-3.161 -4.31051,-7.4715 -1.53263,-4.4063 -1.53263,-9.7705 0,-5.2684 1.53263,-9.579 1.62841,-4.4063 4.4063,-7.4715 2.87368,-3.1611 6.80104,-4.7895 3.92736,-1.7242 8.52524,-1.7242 4.69367,0 8.52524,1.7242 3.92736,1.6284 6.70525,4.7895 2.87368,3.0652 4.40631,7.4715 1.53262,4.3106 1.53262,9.579 z m -30.46098,0.096 q 0,6.0347 2.10737,9.7705 2.20315,3.7357 6.99261,3.7357 4.59789,0 6.89683,-3.7357 2.39473,-3.7358 2.39473,-9.7705 0,-6.0348 -2.20315,-9.6748 -2.10737,-3.7357 -6.89683,-3.7357 -4.59788,0 -6.99261,3.7357 -2.29895,3.64 -2.29895,9.6748 z" />
        <path
           id="path4192"
           style=""
           d="m 832.00083,1271.7996 -10.24945,0 0,-9.7705 10.24945,0 0,-11.3032 11.78207,-1.9157 0,13.2189 18.87048,0 0,9.7705 -18.87048,0 0,18.1999 q 0,2.4906 0.47895,4.0232 0.47895,1.5326 1.34105,2.3947 0.8621,0.8621 2.10736,1.1495 1.24526,0.2874 2.77789,0.2874 1.62842,0 2.96947,-0.096 1.43684,-0.096 2.6821,-0.2874 1.34104,-0.2874 2.68209,-0.7663 1.43684,-0.479 3.06526,-1.2453 l 1.62842,10.1537 q -3.25684,1.341 -7.08841,1.9158 -3.73578,0.5747 -7.27998,0.5747 -4.11894,0 -7.27998,-0.6705 -3.16105,-0.6705 -5.3642,-2.5863 -2.20315,-1.9158 -3.35262,-5.3642 -1.14947,-3.5442 -1.14947,-9.1958 l 0,-18.4873 z" />
        <path
           id="path4194"
           style=""
           d="m 511.39422,1390.6741 q -12.54839,0 -19.15785,-8.0463 -6.60946,-8.0463 -6.60946,-22.8937 0,-7.3757 2.01158,-13.1231 2.01157,-5.7473 5.55577,-9.6747 3.64,-4.0231 8.52525,-6.0347 4.98104,-2.1074 10.82418,-2.1074 3.16105,0 5.65157,0.5748 2.58631,0.4789 4.50209,1.1494 1.91579,0.6705 3.16105,1.4369 1.34105,0.7663 2.01157,1.1494 l -3.06526,9.3874 q -2.20315,-1.4369 -5.36419,-2.3948 -3.06526,-1.0536 -7.08841,-1.0536 -2.77789,0 -5.45998,1.0536 -2.58631,0.9579 -4.69368,3.3527 -2.01157,2.2989 -3.35262,6.2263 -1.24526,3.9273 -1.24526,9.7705 0,10.1536 3.44841,15.6136 3.5442,5.3642 11.49471,5.3642 4.59789,0 7.56735,-1.0537 3.06526,-1.0536 4.88525,-2.1073 l 2.96947,9.2915 q -2.49052,1.5327 -6.80104,2.8737 -4.21472,1.2453 -9.7705,1.2453 z" />
        <path
           id="path4196"
           style=""
           d="m 576.14775,1366.8225 q 0,5.3642 -1.53263,9.7705 -1.53263,4.3106 -4.31051,7.4716 -2.77789,3.1611 -6.70525,4.8853 -3.83157,1.7242 -8.62103,1.7242 -4.78947,0 -8.71682,-1.7242 -3.83157,-1.7242 -6.70525,-4.8853 -2.77789,-3.161 -4.31052,-7.4716 -1.53263,-4.4063 -1.53263,-9.7705 0,-5.2684 1.53263,-9.5789 1.62842,-4.4063 4.40631,-7.4715 2.87368,-3.1611 6.80103,-4.7895 3.92736,-1.7242 8.52525,-1.7242 4.69367,0 8.52524,1.7242 3.92736,1.6284 6.70525,4.7895 2.87367,3.0652 4.4063,7.4715 1.53263,4.3105 1.53263,9.5789 z m -30.46098,0.096 q 0,6.0348 2.10736,9.7705 2.20316,3.7358 6.99262,3.7358 4.59788,0 6.89682,-3.7358 2.39474,-3.7357 2.39474,-9.7705 0,-6.0347 -2.20316,-9.6747 -2.10736,-3.7358 -6.89682,-3.7358 -4.59789,0 -6.99262,3.7358 -2.29894,3.64 -2.29894,9.6747 z" />
        <path
           id="path4198"
           style=""
           d="m 611.68556,1343.9289 q 3.73578,0 6.13051,1.1495 2.39473,1.1495 3.73578,3.4484 1.43684,2.2989 1.91579,5.8431 0.47894,3.4485 0.47894,8.1421 l 0,26.9168 -9.57892,0 0,-27.4915 q 0,-2.6821 -0.38316,-4.3105 -0.28737,-1.6284 -0.8621,-2.4905 -0.47895,-0.8621 -1.24526,-1.1495 -0.67053,-0.2874 -1.43684,-0.2874 -0.8621,0 -1.82,0.1916 -0.95789,0.096 -1.7242,0.4789 0.28737,1.82 0.47894,4.0232 0.19158,2.2031 0.19158,4.8852 l 0,9.0042 -9.57892,0 0,-10.3452 q 0,-4.5979 -0.95789,-6.4179 -0.86211,-1.82 -2.87368,-1.82 -0.57474,0 -1.43684,0.096 -0.76631,0.096 -1.53263,0.2874 l 0,35.3462 -9.57892,0 0,-43.2967 q 3.73578,-1.0537 7.37577,-1.6284 3.63999,-0.5748 6.41788,-0.5748 2.49052,0 4.4063,0.6705 2.01158,0.5748 3.44842,2.0116 1.62841,-1.0537 3.83157,-1.82 2.20315,-0.8621 4.59788,-0.8621 z" />
        <path
           id="path4200"
           style=""
           d="m 659.58018,1343.9289 q 3.73578,0 6.13052,1.1495 2.39473,1.1495 3.73578,3.4484 1.43683,2.2989 1.91578,5.8431 0.47895,3.4485 0.47895,8.1421 l 0,26.9168 -9.57893,0 0,-27.4915 q 0,-2.6821 -0.38315,-4.3105 -0.28737,-1.6284 -0.86211,-2.4905 -0.47894,-0.8621 -1.24526,-1.1495 -0.67052,-0.2874 -1.43684,-0.2874 -0.8621,0 -1.81999,0.1916 -0.9579,0.096 -1.72421,0.4789 0.28737,1.82 0.47895,4.0232 0.19158,2.2031 0.19158,4.8852 l 0,9.0042 -9.57893,0 0,-10.3452 q 0,-4.5979 -0.95789,-6.4179 -0.8621,-1.82 -2.87368,-1.82 -0.57473,0 -1.43684,0.096 -0.76631,0.096 -1.53263,0.2874 l 0,35.3462 -9.57892,0 0,-43.2967 q 3.73578,-1.0537 7.37577,-1.6284 3.63999,-0.5748 6.41788,-0.5748 2.49052,0 4.40631,0.6705 2.01157,0.5748 3.44841,2.0116 1.62842,-1.0537 3.83157,-1.82 2.20315,-0.8621 4.59788,-0.8621 z" />
        <path
           id="path4202"
           style=""
           d="m 716.57478,1387.8962 q -3.25683,0.8621 -7.9505,1.7242 -4.59789,0.8621 -10.05787,0.8621 -5.55578,0 -9.09998,-1.5326 -3.5442,-1.5327 -5.65157,-4.3106 -2.01157,-2.8736 -2.77789,-6.7052 -0.76631,-3.8316 -0.76631,-8.4295 l 0,-25.0967 11.78208,0 0,23.5641 q 0,6.2263 1.43684,9.2916 1.53262,2.9694 5.84314,2.9694 2.6821,0 5.3642,-0.4789 l 0,-35.3462 11.87786,0 0,43.4883 z" />
        <path
           id="path4204"
           style=""
           d="m 728.54844,1345.8447 q 3.16105,-0.8621 7.75893,-1.6284 4.69367,-0.7663 10.15366,-0.7663 5.3642,0 8.9084,1.5326 3.5442,1.4368 5.55578,4.2147 2.10736,2.6821 2.96946,6.5137 0.8621,3.7358 0.8621,8.3337 l 0,25.3841 -11.78207,0 0,-23.8515 q 0,-6.3221 -1.43684,-9.1 -1.43684,-2.7779 -5.84314,-2.7779 -1.34105,0 -2.6821,0.096 -1.24526,0.096 -2.6821,0.2874 l 0,35.3462 -11.78208,0 0,-43.5841 z" />
        <path
           id="path4206"
           style=""
           d="m 797.61249,1331.4763 q 0,3.4484 -2.20316,5.46 -2.20315,2.0116 -5.2684,2.0116 -3.06526,0 -5.26841,-2.0116 -2.10737,-2.0116 -2.10737,-5.46 0,-3.5442 2.10737,-5.5558 2.20315,-2.0115 5.26841,-2.0115 3.06525,0 5.2684,2.0115 2.20316,2.0116 2.20316,5.5558 z m 17.52943,56.0367 q -3.63999,1.7242 -6.89683,2.299 -3.16104,0.6705 -5.84314,0.6705 -4.59789,0 -7.75893,-1.3411 -3.06526,-1.341 -4.98104,-3.8315 -1.82,-2.5863 -2.58631,-6.2263 -0.76631,-3.64 -0.76631,-8.3337 l 0,-16.5715 -12.45261,0 0,-9.7705 24.23468,0 0,27.8746 q 0,4.0232 1.43684,6.0348 1.53263,1.9157 4.98104,1.9157 1.62842,0 3.92736,-0.3831 2.29894,-0.479 5.17262,-1.82 l 1.53263,9.4831 z" />
        <path
           id="path4208"
           style=""
           d="m 832.00083,1354.1784 -10.24945,0 0,-9.7705 10.24945,0 0,-11.3032 11.78207,-1.9158 0,13.219 18.87048,0 0,9.7705 -18.87048,0 0,18.1999 q 0,2.4905 0.47895,4.0232 0.47895,1.5326 1.34105,2.3947 0.8621,0.8621 2.10736,1.1495 1.24526,0.2873 2.77789,0.2873 1.62842,0 2.96947,-0.096 1.43684,-0.096 2.6821,-0.2874 1.34104,-0.2874 2.68209,-0.7663 1.43684,-0.479 3.06526,-1.2453 l 1.62842,10.1537 q -3.25684,1.341 -7.08841,1.9158 -3.73578,0.5747 -7.27998,0.5747 -4.11894,0 -7.27998,-0.6705 -3.16105,-0.6706 -5.3642,-2.5863 -2.20315,-1.9158 -3.35262,-5.3642 -1.14947,-3.5442 -1.14947,-9.1958 l 0,-18.4873 z" />
        <path
           id="path4210"
           style=""
           d="m 911.41011,1344.4079 q -1.82,6.3221 -3.5442,12.4526 -1.62842,6.0347 -3.44841,11.8778 -1.82,5.7474 -3.92736,11.3032 -2.01158,5.5557 -4.40631,10.8241 -1.81999,3.8316 -3.63999,6.6095 -1.72421,2.7779 -3.92736,4.5021 -2.10736,1.82 -4.78946,2.6821 -2.58631,0.8621 -6.13051,0.8621 -2.96947,0 -5.45999,-0.4789 -2.39473,-0.479 -4.02315,-1.2453 l 2.20315,-9.8663 q 1.91579,0.8621 3.35263,1.1495 1.53263,0.3831 3.25683,0.3831 3.44841,0 5.55578,-2.2989 2.10736,-2.299 3.35262,-5.46 -4.21473,-8.4295 -8.42945,-19.2536 -4.21473,-10.92 -7.66314,-24.0431 l 12.26102,0 q 0.8621,3.5442 1.91579,7.5673 1.14947,4.0232 2.39473,8.0463 1.24526,4.0232 2.58631,7.9505 1.43684,3.8316 2.87367,7.1842 0.9579,-3.3526 2.01158,-7.1842 1.05368,-3.9273 2.01157,-7.8547 0.9579,-4.0231 1.82,-8.0463 0.95789,-4.0231 1.72421,-7.6631 l 12.06944,0 z" />
      </g>
    </g>
  </g>
</svg>
