<?xml version="1.0" encoding="UTF-8" standalone="no"?>
<svg
   xmlns:dc="http://purl.org/dc/elements/1.1/"
   xmlns:cc="http://creativecommons.org/ns#"
   xmlns:rdf="http://www.w3.org/1999/02/22-rdf-syntax-ns#"
   xmlns:svg="http://www.w3.org/2000/svg"
   xmlns="http://www.w3.org/2000/svg"
   width="512"
   height="512"
   viewBox="0 0 512.00001 512.00001"
   id="svg3390"
   version="1.1">
  <defs
     id="defs3392" />
  <metadata
     id="metadata3395">
    <rdf:RDF>
      <cc:Work
         rdf:about="">
        <dc:format>image/svg+xml</dc:format>
        <dc:type
           rdf:resource="http://purl.org/dc/dcmitype/StillImage" />
        <dc:title></dc:title>
      </cc:Work>
    </rdf:RDF>
  </metadata>
  <g
     id="layer1"
     transform="translate(0,-540.36213)">
    <g
       transform="matrix(0.9395627,0,0,0.93956263,-407.68014,-34.051353)"
       id="layer1-2">
      <g
         transform="translate(450.37131,75.467625)"
         id="g3889">
        <rect
           width="532.16248"
           height="319.29752"
           x="-10.081226"
           y="646.58478"
           id="rect4463"
           style="fill:#005080;fill-opacity:1;fill-rule:nonzero;stroke:none" />
        <path
           style="fill:#00c0ff;fill-opacity:1;fill-rule:nonzero;stroke:none"
           d="m 175.1113,535.89502 -80.888686,80.8887 -110.68979,0 0,381.02839 110.68979,0 80.888686,83.01729 161.77739,0 80.88869,-83.01729 110.68979,0 0,-381.02839 -110.68979,0 -80.88869,-80.8887 -161.77739,0 z m 73.51325,143.64022 c 12.26503,0.0172 24.76797,1.75363 37.17654,5.36528 l 10.64325,74.50275 c -47.91104,-25.49344 -96.92158,-2.28364 -97.91789,45.76598 l -75.56707,0 c 0.13315,-75.68169 59.43408,-125.72691 125.66517,-125.63401 z m 191.04632,0 c 12.26503,0.0172 24.76797,1.75364 37.17654,5.36528 l 10.64325,74.50275 c -47.91104,-25.4934 -96.92159,-2.28363 -97.91789,45.76598 l -75.56707,0 c 0.13315,-75.68168 59.43408,-125.72689 125.66517,-125.63401 z m -416.758026,0.57582 78.760046,18.09352 0,63.32734 -78.760046,-18.09352 0,-63.32734 z m 0,76.09924 78.760046,18.09352 0,158.58439 -78.760046,0 0,-176.67791 z m 100.578706,61.73085 75.56706,0 c 15.99747,54.10461 75.19055,50.77562 97.38573,33.17701 l -10.64325,77.88075 c -82.32298,16.6709 -156.2134,-27.05704 -162.30954,-111.05776 z m 191.04632,0 75.56706,0 c 15.99747,54.10459 75.19055,50.7756 97.38573,33.17701 l -10.64325,77.88075 c -82.32298,16.6709 -156.2134,-27.05706 -162.30954,-111.05776 z"
           id="rect3079" />
      </g>
      <g
         transform="matrix(1.1679463,0,0,1.1679463,-82.381474,-106.01076)"
         id="g4059"
         style="fill:#393939;fill-opacity:1;stroke:none">
        <g
           id="g4028"
           style="fill:#393939;fill-opacity:1;stroke:none" />
        <g
           id="g4024"
           style="fill:#393939;fill-opacity:1;stroke:none" />
      </g>
    </g>
  </g>
</svg>
