<?xml version="1.0" encoding="UTF-8" standalone="no"?>
<!-- Created with Inkscape (http://www.inkscape.org/) -->

<svg
   xmlns:dc="http://purl.org/dc/elements/1.1/"
   xmlns:cc="http://creativecommons.org/ns#"
   xmlns:rdf="http://www.w3.org/1999/02/22-rdf-syntax-ns#"
   xmlns:svg="http://www.w3.org/2000/svg"
   xmlns="http://www.w3.org/2000/svg"
   xmlns:xlink="http://www.w3.org/1999/xlink"
   version="1.1"
   width="544.93439"
   height="544.93439"
   id="svg2">
  <defs
     id="defs4">
    <linearGradient
       id="linearGradient3972">
      <stop
         id="stop3974"
         style="stop-color:#000000;stop-opacity:1"
         offset="0" />
      <stop
         id="stop3976"
         style="stop-color:#ffffff;stop-opacity:1"
         offset="1" />
    </linearGradient>
    <linearGradient
       id="linearGradient3946">
      <stop
         id="stop3948"
         style="stop-color:#000000;stop-opacity:1"
         offset="0" />
      <stop
         id="stop3950"
         style="stop-color:#000000;stop-opacity:0"
         offset="1" />
    </linearGradient>
    <linearGradient
       id="linearGradient3875">
      <stop
         id="stop3877"
         style="stop-color:#ffd438;stop-opacity:1"
         offset="0" />
      <stop
         id="stop3879"
         style="stop-color:#000000;stop-opacity:1"
         offset="1" />
    </linearGradient>
    <linearGradient
       id="linearGradient3900">
      <stop
         id="stop3902"
         style="stop-color:#ffd332;stop-opacity:1"
         offset="0" />
      <stop
         id="stop3904"
         style="stop-color:#000000;stop-opacity:1"
         offset="1" />
    </linearGradient>
    <linearGradient
       id="linearGradient3945">
      <stop
         id="stop3947"
         style="stop-color:#f5c700;stop-opacity:1"
         offset="0" />
      <stop
         id="stop3949"
         style="stop-color:#000000;stop-opacity:1"
         offset="1" />
    </linearGradient>
    <linearGradient
       id="linearGradient3963">
      <stop
         id="stop3965"
         style="stop-color:#000000;stop-opacity:1"
         offset="0" />
      <stop
         id="stop3967"
         style="stop-color:#7f6400;stop-opacity:0"
         offset="1" />
    </linearGradient>
    <linearGradient
       id="linearGradient3971">
      <stop
         id="stop3973"
         style="stop-color:#f5c700;stop-opacity:1"
         offset="0" />
      <stop
         id="stop3975"
         style="stop-color:#000000;stop-opacity:1"
         offset="1" />
    </linearGradient>
    <linearGradient
       id="linearGradient3984">
      <stop
         id="stop3986"
         style="stop-color:#f5c700;stop-opacity:1"
         offset="0" />
      <stop
         id="stop3988"
         style="stop-color:#000000;stop-opacity:1"
         offset="1" />
    </linearGradient>
    <linearGradient
       id="linearGradient3992">
      <stop
         id="stop3994"
         style="stop-color:#f5c700;stop-opacity:1"
         offset="0" />
      <stop
         id="stop3996"
         style="stop-color:#000000;stop-opacity:1"
         offset="1" />
    </linearGradient>
    <radialGradient
       cx="17.855946"
       cy="25.094042"
       r="0.99545348"
       fx="17.855946"
       fy="25.094042"
       id="radialGradient3139"
       xlink:href="#linearGradient3900"
       gradientUnits="userSpaceOnUse"
       gradientTransform="matrix(2.3589521,0,0,2.3589521,-24.265377,-34.101604)" />
    <radialGradient
       cx="17.855946"
       cy="25.094042"
       r="0.99545348"
       fx="17.855946"
       fy="25.094042"
       id="radialGradient3141"
       xlink:href="#linearGradient3875"
       gradientUnits="userSpaceOnUse"
       gradientTransform="matrix(2.4704161,0,0,2.4704161,-26.255671,-36.898686)" />
    <linearGradient
       x1="6.533155"
       y1="11.615763"
       x2="6.4043641"
       y2="17.009403"
       id="linearGradient3146"
       xlink:href="#linearGradient3963"
       gradientUnits="userSpaceOnUse"
       gradientTransform="matrix(15.984585,0,0,15.984585,-601.08255,491.78832)" />
    <linearGradient
       x1="-616.87164"
       y1="820.93103"
       x2="-625.89124"
       y2="820.48627"
       id="linearGradient3155"
       xlink:href="#linearGradient3971"
       gradientUnits="userSpaceOnUse"
       gradientTransform="matrix(15.984585,0,0,15.984585,9182.3973,-12894.293)" />
    <linearGradient
       x1="21.963614"
       y1="1036.9344"
       x2="27.312754"
       y2="1039.2969"
       id="linearGradient3161"
       xlink:href="#linearGradient3945"
       gradientUnits="userSpaceOnUse"
       gradientTransform="matrix(15.984585,0,0,15.984585,-601.08255,-15818.278)" />
    <linearGradient
       x1="5.9375"
       y1="13.84375"
       x2="6.0625"
       y2="19.5625"
       id="linearGradient3164"
       xlink:href="#linearGradient3984"
       gradientUnits="userSpaceOnUse"
       gradientTransform="matrix(15.984585,0,0,15.984585,-601.08255,491.78832)" />
    <linearGradient
       x1="10.5"
       y1="22.125"
       x2="7.1875"
       y2="29.4375"
       id="linearGradient3167"
       xlink:href="#linearGradient3992"
       gradientUnits="userSpaceOnUse"
       gradientTransform="matrix(15.984585,0,0,15.984585,-601.08255,491.78832)" />
    <linearGradient
       x1="-459.52811"
       y1="756.54578"
       x2="-156.10139"
       y2="756.54578"
       id="linearGradient3952"
       xlink:href="#linearGradient3946"
       gradientUnits="userSpaceOnUse" />
  </defs>
  <metadata
     id="metadata7">
    <rdf:RDF>
      <cc:Work
         rdf:about="">
        <dc:format>image/svg+xml</dc:format>
        <dc:type
           rdf:resource="http://purl.org/dc/dcmitype/StillImage" />
        <dc:title></dc:title>
      </cc:Work>
    </rdf:RDF>
  </metadata>
  <g
     transform="translate(-433.90413,-611.36263)"
     id="layer1">
    <g
       transform="translate(450.37131,75.467625)"
       id="g3889">
      <rect
         width="487.23938"
         height="321.43259"
         x="14.381778"
         y="651.46216"
         id="rect4463"
         style="fill:#00547d;fill-opacity:1;fill-rule:nonzero;stroke:none" />
      <path
         d="m 186.0539,535.895 -74.66905,74.50274 -127.852029,0 0,399.12186 127.852029,0 74.53601,71.3098 149.07201,0 74.26992,-71.3098 119.20439,0 0,-399.12186 -118.83853,0 -74.56926,-74.50274 z m 62.32952,142.78584 c 10.98969,0 20.73326,3.55001 30.93195,6.11987 l 11.50801,74.10362 c -11.53068,-9.94621 -26.01619,-16.56356 -42.43996,-16.56356 -32.63645,0 -58.45968,24.21874 -63.65993,55.37816 l -63.65993,0 c 5.58031,-66.42006 59.43953,-119.03809 127.31986,-119.03809 z m 188.45204,0 c 10.98968,0 20.73325,3.55001 30.93194,6.11987 l 11.54127,74.10362 c -11.53068,-9.94621 -26.04945,-16.56356 -42.47321,-16.56356 -32.63646,0 -58.45969,24.21874 -63.65994,55.37816 l -63.65993,0 c 5.58031,-66.42006 59.43953,-119.03809 127.31987,-119.03809 z m -396.594077,0.0665 56.642042,16.36252 0,57.17568 -56.642042,-15.19989 z m 0,82.15258 56.642042,15.19989 0,162.90823 -56.642042,0 z m 80.822177,59.83502 63.65993,0 c 5.20025,31.15942 31.02348,55.37815 63.65993,55.37815 16.42377,0 30.90928,-6.58409 42.43996,-16.53029 l -11.50801,74.07036 c -10.19869,2.56986 -19.94226,6.11987 -30.93195,6.11987 -67.88033,0 -121.73957,-52.61802 -127.31986,-119.03809 z m 188.45203,0 63.65993,0 c 5.20025,31.15942 31.02348,55.37815 63.65994,55.37815 16.42376,0 30.94253,-6.58409 42.47321,-16.53029 l -11.54127,74.07036 c -10.19869,2.56986 -19.94226,6.11987 -30.93194,6.11987 -67.88034,0 -121.73957,-52.61802 -127.31987,-119.03809 z"
         id="rect3079"
         style="fill:#23c3ff;fill-opacity:1;fill-rule:nonzero;stroke:none" />
    </g>
    <g
       transform="matrix(1.1679463,0,0,1.1679463,-82.381474,-106.01076)"
       id="g4059"
       style="fill:#393939;fill-opacity:1;stroke:none">
      <g
         id="g4028"
         style="fill:#393939;fill-opacity:1;stroke:none" />
      <g
         id="g4024"
         style="fill:#393939;fill-opacity:1;stroke:none" />
    </g>
  </g>
</svg>
